<?xml version="1.0" standalone="no"?>
<!DOCTYPE svg PUBLIC "-//W3C//DTD SVG 20010904//EN"
 "http://www.w3.org/TR/2001/REC-SVG-20010904/DTD/svg10.dtd">
<svg version="1.0" xmlns="http://www.w3.org/2000/svg"
 width="4850.000000pt" height="5000.000000pt" viewBox="0 0 4850.000000 5000.000000"
 preserveAspectRatio="xMidYMid meet">

<g transform="translate(0.000000,5000.000000) scale(0.100000,-0.100000)"
fill="#000000" stroke="none">
<path d="M24257 49961 c3 -13 -3 -27 -19 -40 -90 -78 -2756 -2091 -2769 -2091
-9 0 -581 156 -1270 346 -1634 450 -1644 453 -1645 451 0 -1 106 -330 237
-731 131 -401 236 -732 233 -737 -3 -5 -11 -9 -17 -8 -7 0 -5 3 3 6 8 4 -122
41 -290 83 -168 43 -611 155 -985 249 l-679 171 -31 -31 c-16 -18 -24 -28 -17
-24 9 4 15 0 19 -14 6 -24 7 -25 32 -9 15 9 121 -14 567 -125 330 -81 674
-160 863 -196 172 -33 316 -62 318 -65 3 -3 99 -299 213 -658 181 -569 206
-654 192 -660 -10 -4 -179 -50 -377 -104 -775 -207 -1454 -426 -2205 -709
-157 -60 -316 -121 -354 -136 -39 -16 -71 -27 -72 -26 -1 1 -99 337 -218 747
-119 410 -219 751 -222 759 -3 10 -17 2 -49 -29 -25 -24 -45 -41 -45 -38 0 4
266 257 590 563 325 306 590 559 590 562 0 2 -66 -58 -148 -134 -81 -76 -303
-282 -492 -459 -190 -176 -430 -400 -535 -497 -121 -112 -192 -172 -196 -164
-4 7 -98 297 -210 645 -111 347 -206 632 -210 632 -4 0 -342 -417 -751 -927
-408 -511 -832 -1039 -941 -1175 l-199 -248 -72 0 c-39 1 -821 22 -1738 49
-1369 39 -1670 50 -1684 62 -13 11 -18 11 -21 2 -3 -7 -14 -13 -26 -13 -16 0
-18 -3 -9 -12 7 -7 12 -20 12 -31 0 -23 -1000 -3319 -1010 -3330 -8 -9 -323
-128 -1852 -698 -538 -200 -978 -366 -978 -369 1 -3 286 -212 635 -465 561
-407 687 -503 630 -481 -8 3 -15 1 -15 -4 0 -5 -7 -6 -17 -3 -10 4 -14 2 -10
-4 7 -11 -42 -38 -51 -28 -3 3 1 5 8 5 7 0 11 2 8 5 -9 10 -38 -7 -31 -18 3
-6 1 -7 -5 -3 -6 4 -359 -133 -784 -303 -1224 -490 -1091 -433 -1106 -477 -7
-21 -11 -47 -9 -59 3 -15 5 -13 6 8 1 27 14 36 26 17 11 -17 35 -11 35 9 0 15
89 54 493 216 270 109 553 227 627 263 166 79 292 139 345 162 22 10 75 34
118 54 43 20 76 32 73 27 -5 -7 738 -562 1070 -800 67 -48 74 -55 62 -71 -7
-10 -119 -150 -249 -312 -571 -710 -1062 -1392 -1533 -2130 -38 -60 -72 -108
-77 -108 -5 0 -275 206 -601 458 -738 569 -689 533 -700 526 -5 -3 -6 5 -3 18
18 79 255 1362 253 1370 -2 5 -41 -181 -86 -414 -46 -233 -119 -609 -164 -835
-44 -227 -83 -413 -87 -413 -3 0 -199 142 -436 315 -236 174 -476 348 -532
389 l-101 74 -6 -92 c-4 -50 -36 -732 -72 -1516 -36 -783 -66 -1425 -67 -1426
-1 -1 -218 -149 -482 -329 -264 -181 -536 -367 -605 -414 -69 -47 -498 -341
-954 -653 -709 -485 -831 -565 -851 -558 -19 7 -21 6 -17 -16 3 -16 0 -24 -9
-24 -8 0 -3 -10 12 -23 22 -18 72 -155 284 -767 142 -410 397 -1145 567 -1635
306 -881 309 -890 293 -920 -9 -16 -384 -586 -833 -1265 l-818 -1235 803 -3
c706 -2 802 -4 797 -17 -4 -8 -11 -12 -17 -8 -5 3 -7 1 -3 -5 6 -9 -30 -82
-41 -82 -2 0 -1 5 3 12 5 7 3 8 -5 4 -7 -5 -10 -15 -7 -23 3 -8 2 -12 -3 -9
-5 4 -21 -14 -35 -38 -29 -50 -32 -61 -13 -50 7 4 9 3 4 -2 -5 -5 -13 -9 -19
-9 -5 0 -239 -367 -519 -815 l-511 -815 22 -40 c11 -22 18 -32 16 -22 -4 13 1
17 20 17 21 0 24 3 18 24 -5 19 53 117 295 505 166 264 301 483 301 487 0 6
42 82 239 437 42 75 77 133 79 127 3 -7 248 -10 729 -10 l725 0 -6 -72 c-26
-343 -46 -981 -46 -1506 0 -522 8 -830 35 -1332 8 -145 13 -266 10 -268 -2 -2
-377 7 -833 19 l-829 23 -318 668 c-175 368 -319 667 -321 665 -2 -2 161 -354
361 -782 201 -428 367 -787 371 -797 5 -17 -24 -18 -655 -18 l-660 0 203 -307
c111 -170 409 -621 661 -1003 656 -994 783 -1188 795 -1209 15 -28 -1138
-3276 -1172 -3303 -14 -10 -17 -18 -9 -18 9 0 11 -7 8 -21 -5 -17 -1 -20 18
-17 18 2 324 -206 1232 -837 1073 -746 1644 -1144 1650 -1149 1 -1 32 -681 69
-1511 37 -831 68 -1512 70 -1514 1 -1 20 11 41 27 148 117 1238 901 1241 892
2 -5 8 -7 14 -4 7 5 9 -7 4 -37 -3 -25 25 -484 64 -1043 38 -550 70 -1010 70
-1022 0 -24 22 -38 188 -127 290 -155 1659 -913 1657 -917 -2 -3 -249 -183
-549 -400 -300 -217 -539 -397 -533 -399 76 -23 2815 -1057 2824 -1065 8 -8
747 -2489 969 -3255 23 -79 24 -85 8 -102 -16 -18 -16 -19 5 -19 12 0 24 -7
27 -15 5 -12 9 -12 23 4 15 18 91 20 1631 50 888 17 1673 32 1744 34 l129 2
751 -941 c413 -518 837 -1050 943 -1183 l192 -240 20 62 c11 34 122 377 246
761 124 385 228 702 230 705 6 6 55 -39 52 -49 -1 -3 234 -287 523 -630 560
-665 818 -970 829 -983 4 -4 32 -3 62 2 32 5 42 9 25 10 -25 1 -27 4 -22 26 6
22 3 25 -18 25 -21 0 -91 78 -396 438 -213 252 -461 532 -585 661 -118 124
-215 229 -215 235 0 7 400 1245 425 1313 2 7 38 -2 107 -29 1018 -397 1835
-665 2801 -918 60 -15 110 -30 112 -32 6 -5 -515 -1482 -525 -1488 -5 -3 -379
-55 -831 -115 -452 -61 -816 -111 -807 -113 8 -2 192 20 409 48 1108 141 1511
192 1514 188 3 -2 -81 -267 -186 -588 -225 -690 -219 -673 -214 -678 2 -3 657
176 1456 397 798 222 1457 400 1464 397 11 -4 2339 -1785 2653 -2029 80 -63
102 -85 102 -105 0 -20 3 -22 14 -13 7 6 21 9 30 5 11 -4 16 -1 16 13 0 12 71
72 218 184 1188 905 2529 1923 2546 1934 19 12 54 4 306 -65 157 -43 728 -201
1270 -350 1362 -375 1351 -372 1356 -368 2 3 -18 72 -45 154 -269 814 -431
1315 -431 1328 0 9 5 16 11 16 5 0 7 -5 3 -11 -4 -8 4 -9 27 -5 19 3 27 3 19
-1 -13 -6 1956 -506 1971 -500 4 1 359 332 789 735 430 404 783 732 785 730 2
-1 96 -291 211 -643 114 -352 210 -643 213 -646 3 -4 146 169 317 385 321 404
1565 1969 1569 1974 2 2 787 -17 1746 -41 1645 -42 1743 -45 1756 -63 12 -16
13 -16 13 -1 0 10 8 17 20 17 23 0 24 4 9 28 -8 13 97 375 485 1667 273 908
500 1659 505 1670 5 13 39 32 97 54 372 140 2042 770 2344 883 206 77 378 144
383 147 4 4 -269 207 -607 451 -339 244 -618 450 -620 457 -3 8 -1 11 5 8 17
-11 1866 733 1871 753 3 9 96 491 208 1070 113 578 208 1052 213 1052 9 0
1055 -758 1095 -793 l22 -20 0 34 c0 19 29 690 65 1492 36 802 65 1470 65
1486 0 25 45 58 538 397 295 203 941 646 1435 986 809 556 901 616 923 608 22
-9 24 -8 14 10 -8 15 -6 21 7 29 17 10 16 11 -3 17 -15 4 -28 23 -42 62 -12
32 -271 774 -576 1651 l-556 1594 828 1255 c455 690 829 1259 830 1264 2 4
-355 8 -792 8 l-797 0 16 30 c9 16 18 30 21 30 3 0 2 -4 -1 -10 -3 -5 -4 -10
-1 -10 3 0 10 10 17 21 8 16 8 20 -1 14 -7 -4 -5 6 4 24 9 17 19 31 22 31 2 0
0 -9 -6 -20 -18 -33 -3 -23 19 14 24 38 26 50 9 40 -8 -4 -10 -3 -5 2 5 5 13
9 18 9 5 0 239 368 519 818 l510 818 -20 37 c-10 20 -19 31 -20 25 0 -7 -11
-13 -25 -13 -22 0 -24 -2 -13 -24 13 -30 48 32 -306 -536 -153 -244 -281 -451
-284 -460 -6 -14 -256 -474 -290 -532 l-16 -28 -649 0 -648 0 5 58 c7 64 21
354 37 732 23 543 12 1476 -25 2155 -7 127 -12 231 -11 232 2 3 1489 -37 1491
-40 1 -1 126 -264 279 -585 153 -320 279 -581 281 -579 2 2 -152 334 -342 738
-190 404 -348 740 -351 747 -4 9 136 12 681 12 l685 0 -193 293 c-106 160
-395 596 -641 967 -247 371 -537 809 -646 973 l-198 298 29 82 c15 45 136 388
268 762 132 374 377 1069 545 1545 168 476 309 873 312 883 4 9 14 17 22 17
10 0 13 6 9 16 -3 9 -6 22 -6 30 0 8 -10 14 -25 14 -18 0 -423 275 -1278 867
-1715 1187 -1607 1110 -1607 1137 0 13 -5 113 -10 222 -6 109 -37 777 -70
1483 -33 707 -62 1287 -64 1289 -2 2 -290 -207 -640 -463 -350 -256 -644 -469
-653 -472 -13 -5 -15 -2 -10 11 6 15 -134 1993 -149 2114 -4 33 -11 45 -32 55
-24 12 -29 11 -49 -10 -12 -13 -19 -23 -15 -23 33 -1 35 -20 79 -587 24 -312
47 -595 53 -628 23 -143 71 -537 68 -561 -2 -21 -95 -92 -523 -404 -432 -315
-522 -377 -530 -364 -83 128 -482 723 -576 859 -333 477 -704 962 -1208 1579
-45 55 -80 104 -78 109 1 5 275 197 607 427 333 230 604 423 602 430 -2 8 4 7
20 -1 13 -7 322 -173 688 -369 738 -396 719 -386 705 -373 -5 6 -380 212 -833
458 -452 246 -821 452 -820 456 3 8 303 228 946 696 73 53 129 100 125 104 -5
4 -597 225 -1318 492 -1472 546 -1497 555 -1508 566 -5 5 -232 755 -506 1667
-456 1516 -497 1661 -485 1682 13 20 13 22 -5 22 -11 0 -21 6 -24 13 -3 9 -8
9 -22 -3 -12 -10 -48 -16 -119 -18 -149 -4 -3319 -82 -3353 -82 -26 0 -117
110 -978 1180 -523 649 -951 1176 -952 1172 -5 -16 -454 -1428 -459 -1441 -3
-11 -13 -7 -36 15 -18 16 -26 20 -18 9 8 -11 -3 -4 -23 14 -20 19 -37 37 -37
40 0 2 11 -6 25 -19 14 -13 25 -20 25 -17 0 6 -995 1197 -1206 1445 -36 41
-51 52 -75 52 -16 0 -29 -5 -29 -12 0 -7 -3 -23 -6 -36 -6 -20 -4 -22 17 -17
21 5 38 -11 135 -127 372 -446 611 -727 639 -753 18 -16 104 -106 191 -200 86
-93 175 -189 197 -211 l39 -42 -208 -636 c-172 -525 -211 -635 -224 -630 -56
25 -662 252 -885 331 -592 210 -1331 434 -2033 614 -51 13 -91 28 -89 34 2 5
118 332 257 725 139 393 254 716 255 717 1 3 1490 201 1645 220 36 4 56 9 45
10 -11 2 -465 -53 -1010 -121 -544 -68 -991 -123 -992 -122 -1 1 92 289 207
641 115 351 208 640 206 642 -1 2 -16 -1 -32 -7 -66 -22 -2867 -790 -2883
-790 -9 0 -617 462 -1351 1026 -734 564 -1352 1038 -1372 1053 -27 19 -37 33
-38 54 0 24 -2 26 -19 15 -15 -9 -23 -9 -34 1 -13 10 -15 9 -10 -8z m2633
-2070 c19 -21 61 -56 92 -80 50 -37 56 -46 52 -69 -3 -15 -49 -334 -103 -710
-54 -375 -100 -684 -103 -687 -2 -3 -58 2 -124 10 -475 59 -1506 125 -1959
125 -99 0 -237 3 -307 7 l-128 6 0 1231 c0 677 3 1443 7 1702 l6 471 1266
-984 c696 -542 1282 -1002 1301 -1022z m-2645 -1398 c-3 -10 -62 -13 -247 -13
-558 -1 -1400 -52 -2061 -126 -130 -15 -239 -25 -241 -23 -2 2 -51 332 -110
733 -86 589 -104 732 -94 742 12 11 2268 1712 2481 1871 55 41 103 70 106 65
3 -6 42 16 86 49 l80 58 3 -1672 c1 -920 0 -1678 -3 -1684z m-4354 1707 c1421
-393 1552 -429 1561 -438 8 -9 213 -1430 207 -1436 -2 -2 -137 -23 -299 -45
-572 -80 -1146 -182 -1655 -295 -132 -29 -243 -50 -246 -47 -7 7 -298 881
-448 1346 -54 171 -160 500 -235 731 -75 232 -136 426 -136 432 0 6 7 9 16 5
18 -7 18 -6 -2 65 -4 12 -4 22 -1 22 2 0 560 -153 1238 -340z m10015 313
c-426 -1302 -834 -2544 -837 -2547 -2 -3 -85 13 -184 35 -561 123 -1412 268
-1920 326 -62 7 -70 10 -68 28 8 71 186 1310 194 1351 l10 51 72 21 c40 12
653 181 1362 376 710 195 1306 359 1325 364 50 14 52 14 46 -5z m-14442 -2452
c229 -712 413 -1298 409 -1302 -5 -4 -100 -48 -213 -97 -463 -202 -1132 -529
-1559 -762 -102 -56 -190 -99 -195 -97 -11 4 -668 1245 -680 1285 -6 17 156
224 875 1124 485 607 893 1115 907 1131 14 15 29 24 33 20 4 -5 195 -590 423
-1302z m18934 164 l901 -1119 -14 -31 c-34 -77 -633 -1209 -642 -1212 -5 -2
-104 47 -219 108 -540 288 -1297 649 -1767 843 -29 12 -37 20 -33 33 133 431
263 848 296 948 230 712 405 1251 447 1378 37 114 47 136 59 126 11 -9 15 -8
19 2 25 72 25 73 40 58 7 -8 418 -518 913 -1134z m-4591 1109 c-3 -3 -12 -4
-19 -1 -8 3 -5 6 6 6 11 1 17 -2 13 -5z m-70 -10 c-3 -3 -12 -4 -19 -1 -8 3
-5 6 6 6 11 1 17 -2 13 -5z m-74 -11 c-7 -2 -19 -2 -25 0 -7 3 -2 5 12 5 14 0
19 -2 13 -5z m-14083 -1058 c-41 -41 -77 -75 -79 -75 -3 0 28 34 69 75 41 41
77 75 79 75 3 0 -28 -34 -69 -75z m9535 -810 c570 -24 1044 -61 1560 -120
3148 -363 6180 -1465 8837 -3211 3165 -2080 5709 -5011 7310 -8424 941 -2006
1546 -4138 1797 -6335 136 -1187 168 -2419 96 -3630 -299 -4965 -2416 -9654
-5956 -13194 -2047 -2046 -4487 -3630 -7169 -4653 -2711 -1034 -5603 -1476
-8535 -1303 -6096 360 -11702 3434 -15321 8400 -1161 1593 -2097 3374 -2749
5230 -768 2184 -1155 4460 -1155 6795 0 2335 386 4606 1155 6800 1193 3403
3294 6454 6065 8806 2430 2063 5324 3536 8415 4283 1305 315 2593 495 3975
555 412 18 1262 19 1675 1z m-13670 -296 c825 -28 1509 -55 1520 -60 11 -5 60
-10 109 -11 l88 -3 344 -654 c189 -360 341 -658 338 -662 -2 -4 -39 -27 -82
-50 -522 -287 -1394 -844 -1975 -1262 -57 -41 -57 -41 -76 -22 -10 11 -447
616 -971 1345 -524 729 -970 1348 -991 1377 -22 29 -39 55 -39 59 0 4 53 4
118 1 64 -4 792 -30 1617 -58z m27135 21 c0 -5 45 -11 100 -12 l101 -3 -64
-90 c-35 -49 -283 -394 -552 -765 -269 -371 -525 -724 -568 -785 -669 -925
-751 -1036 -766 -1032 -9 2 -117 75 -240 162 -525 368 -1193 788 -1733 1090
-87 48 -158 89 -158 91 0 3 73 143 161 312 183 349 232 441 389 742 62 118
116 219 121 225 6 6 570 22 1462 41 1694 36 1747 37 1747 24z m745 -1573 c251
-857 454 -1564 452 -1570 -2 -7 7 -46 19 -87 13 -41 24 -82 24 -91 0 -13 -940
-998 -961 -1007 -5 -2 -106 84 -226 190 -538 478 -1057 900 -1578 1283 -88 64
-161 118 -163 120 -2 2 412 576 919 1276 1003 1385 1051 1451 1054 1447 2 -2
208 -704 460 -1561z m-28636 145 c539 -750 981 -1369 981 -1375 -1 -7 -33 -34
-72 -62 -415 -290 -1364 -1070 -1780 -1462 -43 -40 -81 -73 -86 -73 -7 0 -895
915 -1024 1055 l-55 60 471 1528 c288 935 475 1526 482 1523 6 -2 20 27 32 68
35 120 41 132 56 115 8 -8 455 -627 995 -1377z m-1527 -2473 c282 -292 514
-536 516 -542 1 -7 -115 -124 -259 -262 -363 -347 -801 -802 -1119 -1160 -68
-77 -133 -150 -145 -163 l-22 -23 -409 293 c-225 162 -611 442 -859 624 -247
181 -517 379 -600 439 -288 209 -319 234 -299 242 15 5 12 11 -21 38 l-38 32
29 10 c16 6 621 231 1344 500 723 270 1322 493 1330 496 8 3 20 6 27 6 6 1
242 -238 525 -530z m32091 15 c741 -274 1347 -501 1347 -504 0 -3 -24 -22 -53
-42 -72 -51 -107 -76 -1156 -843 -513 -374 -935 -681 -940 -683 -4 -1 -48 44
-97 100 -273 314 -1005 1065 -1337 1374 l-118 109 342 355 c587 610 620 642
644 638 12 -3 627 -229 1368 -504z m467 -1360 c0 -2 -13 2 -30 11 -16 9 -30
18 -30 21 0 2 14 -2 30 -11 17 -9 30 -18 30 -21z m130 -70 c0 -2 -9 0 -20 6
-11 6 -20 13 -20 16 0 2 9 0 20 -6 11 -6 20 -13 20 -16z m-34950 -74 c-8 -5
-19 -10 -25 -10 -5 0 -3 5 5 10 8 5 20 10 25 10 6 0 3 -5 -5 -10z m-3232
-2127 c89 -56 2212 -1618 2212 -1629 0 -6 -34 -70 -76 -140 -250 -421 -505
-893 -764 -1415 l-186 -376 -660 326 c-364 179 -668 331 -677 336 -16 10 -12
119 48 1414 36 771 65 1425 65 1452 0 27 2 49 5 49 2 0 17 -8 33 -17z m41282
-1398 c34 -737 64 -1381 67 -1430 l6 -90 -54 -26 c-30 -14 -308 -150 -619
-304 -310 -153 -566 -273 -568 -267 -8 26 -379 766 -467 932 -149 282 -459
831 -581 1026 -12 20 3 33 329 275 386 285 525 388 689 506 221 160 536 389
769 559 266 194 279 202 279 179 0 -21 10 -18 45 10 l30 25 7 -27 c4 -16 34
-631 68 -1368z m-40253 813 c-3 -8 -6 -5 -6 6 -1 11 2 17 5 13 3 -3 4 -12 1
-19z m-10 -50 c-3 -8 -6 -5 -6 6 -1 11 2 17 5 13 3 -3 4 -12 1 -19z m38930
-40 c-3 -7 -5 -2 -5 12 0 14 2 19 5 13 2 -7 2 -19 0 -25z m10 -90 c-3 -7 -5
-2 -5 12 0 14 2 19 5 13 2 -7 2 -19 0 -25z m-39097 -2703 c162 -81 297 -149
299 -151 2 -1 -22 -56 -52 -121 -154 -330 -390 -895 -550 -1318 -105 -276
-290 -801 -302 -853 -4 -18 -13 -36 -20 -38 -7 -3 -651 204 -1432 461 -1913
629 -1876 616 -1866 625 4 4 274 186 598 405 325 219 671 453 770 520 99 67
438 296 753 509 316 213 576 385 579 382 3 -2 41 19 85 48 l80 54 381 -188
c210 -103 515 -254 677 -335z m41850 -380 c1444 -1007 1345 -936 1331 -945 -6
-3 26 -32 74 -64 47 -32 85 -61 85 -66 0 -4 -17 -12 -37 -17 -21 -6 -720 -232
-1553 -503 -833 -270 -1519 -493 -1524 -494 -5 0 -13 10 -18 24 -244 735 -578
1584 -865 2203 -30 64 -53 122 -51 127 3 10 1233 620 1249 620 5 0 9 5 9 11 0
6 12 2 28 -9 15 -11 587 -410 1272 -887z m-44080 -1645 c872 -287 1587 -523
1588 -525 2 -2 -16 -66 -42 -142 -170 -516 -387 -1331 -522 -1963 -37 -173
-69 -318 -73 -322 -3 -4 -107 11 -231 33 -124 22 -470 82 -770 135 -300 53
-545 96 -546 97 0 1 -233 684 -518 1517 -293 856 -514 1516 -508 1518 6 2 -1
37 -19 89 -39 115 -39 115 14 98 23 -8 755 -249 1627 -535z m45637 513 c-3 -5
-251 -694 -553 -1533 -301 -839 -553 -1529 -560 -1535 -6 -5 -21 -40 -33 -76
-12 -36 -27 -73 -34 -82 -8 -10 -63 -24 -167 -42 -85 -15 -384 -66 -664 -115
-280 -49 -512 -87 -516 -85 -4 3 -13 33 -19 67 -120 625 -361 1555 -581 2246
-23 73 -41 135 -39 137 7 6 3143 1024 3157 1025 7 0 11 -3 9 -7z m-45404
-3408 c384 -67 700 -125 704 -128 3 -4 -13 -107 -35 -229 -109 -588 -219
-1374 -257 -1828 -3 -41 -8 -92 -11 -112 l-6 -38 -1352 0 c-744 0 -1356 3
-1359 7 -4 3 -2 12 4 20 9 10 3 13 -36 13 -35 0 -46 3 -42 13 4 11 1241 1885
1499 2270 l99 148 47 -7 c26 -4 361 -62 745 -129z m44501 -292 c144 -219 504
-762 799 -1206 296 -445 537 -813 537 -818 0 -5 -516 -9 -1319 -9 l-1319 0 -6
38 c-3 20 -8 73 -12 117 -33 426 -170 1400 -265 1884 -16 84 -28 155 -26 157
6 7 1279 231 1315 233 32 1 36 -4 296 -396z m145 -2268 c0 -5 -15 19 -34 55
-19 36 -34 70 -34 75 0 6 15 -19 34 -55 19 -36 34 -69 34 -75z m-45639 45 c-6
-11 -13 -20 -16 -20 -2 0 0 9 6 20 6 11 13 20 16 20 2 0 0 -9 -6 -20z m-201
-3515 c0 -5 -8 6 -19 25 -11 19 -19 40 -19 45 0 6 8 -6 19 -25 11 -19 19 -39
19 -45z m1586 -127 c2 -2 11 -78 19 -169 54 -578 187 -1530 270 -1924 8 -38
13 -71 12 -73 -5 -4 -1456 -252 -1480 -252 -20 0 -46 34 -153 198 -72 108
-428 649 -793 1201 -364 553 -665 1011 -668 1019 -5 13 171 14 1392 10 768 -3
1399 -8 1401 -10z m45362 -18 c-5 -18 0 -20 39 -20 24 0 44 -2 44 -5 0 -3
-359 -550 -797 -1216 l-798 -1211 -45 6 c-105 14 -1291 220 -1301 226 -7 5 -1
56 20 161 103 527 240 1510 277 1981 l6 87 132 4 c72 1 648 4 1280 5 1144 2
1148 2 1143 -18z m-45043 -2227 c2 -10 12 -56 21 -103 116 -595 307 -1359 500
-1997 53 -174 94 -317 92 -320 -9 -8 -3299 -1065 -3303 -1060 -6 6 1093 3037
1108 3055 7 8 27 53 43 100 l31 86 734 127 c404 70 743 127 752 128 9 0 19 -7
22 -16z m42991 -199 c314 -54 571 -98 572 -99 2 -1 1034 -2992 1041 -3019 3
-13 1 -17 -6 -12 -18 11 -15 -5 18 -95 17 -45 29 -88 28 -95 -2 -8 -504 152
-1556 496 -854 279 -1555 510 -1558 513 -3 3 12 61 34 129 187 576 406 1401
542 2043 27 132 52 250 55 261 l5 21 127 -22 c71 -12 385 -67 698 -121z
m-42326 -2356 c172 -541 485 -1358 747 -1951 139 -315 139 -315 134 -320 -3
-2 -319 -158 -702 -346 l-697 -342 -528 371 c-290 204 -880 617 -1310 918
-442 308 -781 552 -778 559 2 6 -34 38 -81 69 -46 32 -81 61 -77 65 5 3 67 25
138 48 72 22 798 257 1615 520 817 264 1492 480 1501 480 10 1 22 -22 38 -71z
m42415 -528 c859 -281 1569 -513 1578 -518 17 -7 -35 -43 -1422 -983 -118 -80
-442 -300 -720 -489 -278 -188 -520 -349 -538 -357 -19 -8 -65 -35 -103 -60
l-68 -45 -328 160 c-737 360 -903 443 -903 451 0 5 21 53 46 107 284 609 656
1549 854 2159 25 77 28 85 37 85 3 0 708 -230 1567 -510z m-41429 -1947 c216
-467 611 -1217 889 -1686 42 -71 76 -131 75 -135 -1 -12 -886 -659 -1944
-1421 -208 -150 -240 -171 -243 -152 -3 21 -4 20 -38 -5 -19 -15 -37 -24 -40
-21 -4 4 -133 2780 -134 2882 0 13 12 27 33 38 98 52 1314 646 1323 647 6 0
42 -66 79 -147z m39843 -418 c234 -115 282 -142 282 -159 1 -50 -121 -2777
-126 -2833 l-5 -62 -73 52 c-348 247 -2065 1504 -2066 1511 0 6 56 105 124
220 314 532 682 1225 874 1643 l42 92 333 -163 c182 -89 459 -225 615 -301z
m-38671 -1742 c372 -586 818 -1228 1204 -1734 162 -211 551 -702 593 -747 19
-20 27 -35 20 -42 -5 -5 -304 -212 -664 -459 -360 -247 -654 -455 -652 -461 1
-6 -17 0 -40 14 -24 13 -277 151 -563 306 -286 155 -542 295 -570 310 -27 15
-120 65 -205 110 -85 46 -157 85 -159 87 -3 2 4 10 15 18 17 14 18 16 2 28
-14 11 -21 90 -52 537 -20 289 -47 604 -61 700 -37 266 -70 549 -65 554 8 7
1155 836 1158 836 1 0 19 -26 39 -57z m37098 -562 c303 -233 554 -427 559
-432 9 -8 -301 -1678 -315 -1693 -6 -6 -13 -6 -21 2 -18 18 -28 14 -28 -10 0
-21 -47 -42 -488 -217 -268 -107 -548 -223 -622 -259 -188 -90 -266 -126 -409
-192 l-125 -57 -520 384 c-287 211 -522 387 -524 392 -2 5 21 39 50 74 725
887 1137 1441 1658 2233 l165 251 35 -25 c19 -15 283 -217 585 -451z m-38318
-23 c-3 -7 -5 -2 -5 12 0 14 2 19 5 13 2 -7 2 -19 0 -25z m38950 -80 c-3 -7
-5 -2 -5 12 0 14 2 19 5 13 2 -7 2 -19 0 -25z m-10 -50 c-3 -8 -6 -5 -6 6 -1
11 2 17 5 13 3 -3 4 -12 1 -19z m-10 -50 c-3 -8 -6 -5 -6 6 -1 11 2 17 5 13 3
-3 4 -12 1 -19z m-10 -60 c-3 -8 -6 -5 -6 6 -1 11 2 17 5 13 3 -3 4 -12 1 -19z
m-10 -50 c-3 -8 -6 -5 -6 6 -1 11 2 17 5 13 3 -3 4 -12 1 -19z m-35502 -2050
c254 -291 572 -627 972 -1026 l394 -393 -283 -292 c-157 -161 -385 -395 -507
-522 -123 -126 -231 -235 -242 -243 -16 -11 -188 51 -1336 482 -725 272 -1338
503 -1362 513 l-43 19 1118 811 c616 446 1126 812 1134 812 8 0 78 -73 155
-161z m32630 -144 c306 -217 574 -411 1345 -972 376 -275 388 -284 358 -294
-7 -3 5 -16 26 -31 l39 -26 -39 -16 c-22 -9 -624 -237 -1339 -506 -715 -269
-1310 -494 -1323 -499 -17 -7 -28 -7 -40 2 -10 7 -190 191 -401 408 -212 217
-425 437 -475 488 l-91 92 135 127 c390 366 974 967 1306 1344 73 83 133 143
139 139 6 -4 168 -119 360 -256z m695 -414 c-8 -5 -19 -10 -25 -10 -5 0 -3 5
5 10 8 5 20 10 25 10 6 0 3 -5 -5 -10z m-34880 -36 c0 -2 -9 0 -20 6 -11 6
-20 13 -20 16 0 2 9 0 20 -6 11 -6 20 -13 20 -16z m130 -70 c0 -2 -13 2 -30
11 -16 9 -30 18 -30 21 0 2 14 -2 30 -11 17 -9 30 -18 30 -21z m2945 -886
c505 -469 1212 -1055 1748 -1451 42 -31 77 -62 77 -67 0 -6 -183 -261 -407
-568 -224 -306 -503 -690 -622 -852 -976 -1340 -991 -1360 -1000 -1360 -9 0
-905 3102 -903 3126 1 12 -9 59 -23 104 l-25 83 123 126 c373 387 923 951 927
951 3 0 51 -42 105 -92z m29575 -448 c206 -212 416 -428 467 -481 l94 -95
-456 -1500 c-251 -824 -460 -1514 -466 -1531 -6 -18 -16 -33 -23 -33 -7 0 -23
-36 -37 -86 -27 -97 -35 -114 -46 -98 -5 6 -441 607 -971 1337 -530 729 -964
1330 -965 1334 -1 4 45 43 103 86 609 450 1319 1032 1774 1455 l79 73 37 -38
c20 -21 205 -211 410 -423z m-27556 -1198 c541 -395 1347 -914 1927 -1241 l57
-31 -28 -53 c-214 -401 -680 -1290 -680 -1297 0 -6 -47 -10 -117 -10 -65 0
-786 -11 -1602 -26 -1020 -17 -1486 -22 -1490 -15 -4 6 -53 12 -109 13 l-103
3 29 40 c79 108 1873 2570 1919 2633 30 39 59 72 65 72 6 0 65 -40 132 -88z
m26091 -1352 c541 -745 982 -1356 981 -1358 -8 -7 -3244 100 -3258 108 -10 6
-58 10 -107 10 l-88 0 -324 613 c-178 336 -324 619 -324 627 0 8 46 40 105 73
569 319 1277 766 1815 1145 110 78 204 140 209 139 4 -2 451 -612 991 -1357z
m-23932 -17 c436 -246 1239 -645 1712 -849 86 -38 159 -74 162 -80 5 -12 -226
-746 -451 -1434 -80 -245 -194 -592 -253 -773 -72 -219 -110 -324 -117 -317
-17 17 -22 12 -35 -30 -7 -22 -16 -38 -20 -35 -15 8 -1806 2256 -1809 2268 -2
10 90 190 275 537 28 52 121 230 208 395 87 165 168 319 182 343 27 48 12 50
146 -25z m21080 -630 l327 -617 -27 -35 c-54 -71 -1697 -2137 -1741 -2189 -24
-29 -48 -50 -52 -45 -8 9 -822 2509 -824 2531 -1 8 92 54 234 116 486 212 974
447 1415 680 154 82 289 155 300 162 11 8 24 14 30 14 6 0 158 -278 338 -617z
m-2434 -1226 c115 -390 212 -711 215 -715 4 -3 46 32 94 78 66 64 70 67 17 13
-98 -100 -1358 -1293 -1366 -1293 -4 0 -9 9 -12 21 -5 17 -8 18 -25 8 -17 -11
-105 8 -579 124 -369 91 -663 157 -868 195 l-309 57 -206 640 c-114 352 -206
641 -204 643 1 2 79 23 173 47 716 186 1326 369 1936 583 248 86 867 316 894
332 12 6 18 4 24 -8 4 -9 101 -336 216 -725z m-12852 -322 c487 -107 1113
-219 1622 -290 140 -19 256 -37 259 -40 4 -4 -177 -1310 -195 -1407 -5 -23
-14 -30 -59 -43 -179 -52 -2691 -745 -2721 -751 -29 -5 -35 -4 -31 7 3 8 21
64 41 124 69 213 308 947 507 1560 310 955 289 895 310 895 11 0 131 -25 267
-55z m9495 -462 c92 -274 260 -786 374 -1138 252 -781 274 -849 274 -854 0 -2
-9 -1 -19 2 -18 4 -19 3 -5 -35 17 -50 17 -48 -2 -48 -8 0 -606 163 -1327 361
-722 199 -1346 370 -1387 382 -41 11 -77 21 -79 23 -10 8 -207 1420 -199 1425
6 4 44 10 87 13 377 34 1443 214 1956 330 83 19 152 35 155 35 3 1 81 -223
172 -496z m-13687 447 c10 -11 16 -20 13 -20 -3 0 -13 9 -23 20 -10 11 -16 20
-13 20 3 0 13 -9 23 -20z m70 -80 c21 -22 37 -40 34 -40 -3 0 -23 18 -44 40
-21 22 -37 40 -34 40 3 0 23 -18 44 -40z m17455 -63 c0 -2 -19 -21 -42 -42
l-43 -40 40 43 c36 39 45 47 45 39z m-11171 -197 c248 -30 795 -77 1081 -94
429 -25 473 -27 853 -35 202 -4 369 -10 371 -12 2 -2 1 -770 -3 -1705 l-6
-1702 -1280 994 c-704 546 -1281 999 -1283 1006 -3 11 -25 30 -139 115 -14 11
-6 81 88 733 l103 720 25 0 c15 0 100 -9 190 -20z m4896 -22 c3 -13 50 -338
105 -723 55 -385 101 -705 103 -712 3 -15 -2555 -1947 -2562 -1935 -3 6 -43
-17 -89 -50 -45 -34 -85 -59 -87 -56 -3 3 -2 759 2 1680 l6 1675 111 7 c61 3
202 6 314 6 230 0 575 13 957 35 253 15 880 68 1000 84 112 15 134 14 140 -11z
m-7872 -955 c-7 -2 -19 -2 -25 0 -7 3 -2 5 12 5 14 0 19 -2 13 -5z m-76 -9
c-3 -3 -12 -4 -19 -1 -8 3 -5 6 6 6 11 1 17 -2 13 -5z m-70 -10 c-3 -3 -12 -4
-19 -1 -8 3 -5 6 6 6 11 1 17 -2 13 -5z"/>
<path d="M24060 45113 c-1848 -19 -3726 -302 -5505 -829 -2184 -648 -4272
-1683 -6122 -3036 -1417 -1036 -2702 -2262 -3804 -3628 -1756 -2177 -3030
-4675 -3758 -7366 -565 -2091 -788 -4295 -656 -6484 193 -3188 1132 -6255
2755 -9000 732 -1239 1594 -2392 2594 -3470 231 -249 736 -756 981 -985 1805
-1686 3875 -3014 6148 -3944 2004 -820 4168 -1313 6347 -1445 811 -50 1680
-50 2500 -1 3157 190 6243 1134 8960 2742 2933 1736 5389 4193 7118 7120 1612
2728 2545 5756 2747 8918 52 815 52 1775 0 2590 -337 5278 -2727 10181 -6685
13716 -3504 3129 -7971 4925 -12655 5089 -328 11 -678 16 -965 13z m-199 -835
c0 -13 6 -86 13 -163 7 -77 11 -142 10 -144 -2 -2 -64 -8 -139 -14 l-136 -10
6 -81 c3 -45 21 -432 40 -861 19 -429 36 -804 38 -833 2 -29 0 -51 -4 -50 -6
3 -251 241 -1047 1021 -134 131 -246 237 -248 234 -6 -5 43 -808 49 -814 3 -2
56 0 118 6 63 5 116 8 118 5 6 -6 31 -317 26 -323 -7 -6 -839 -70 -844 -65 -6
5 -31 317 -26 322 2 2 59 8 127 14 67 5 124 11 126 12 4 4 -96 1277 -101 1282
-2 2 -59 -1 -126 -7 -67 -6 -124 -9 -127 -6 -4 4 -33 320 -29 325 2 3 659 62
693 62 22 0 107 -78 451 -411 233 -225 425 -408 426 -407 5 5 -11 537 -16 543
-3 2 -58 0 -123 -6 -65 -6 -119 -9 -122 -7 -6 7 -28 317 -22 323 3 4 674 62
851 74 11 1 17 -7 18 -21z m1326 -21 c435 -18 794 -34 797 -37 5 -6 -24 -772
-30 -779 -2 -2 -78 0 -170 4 l-166 7 7 217 c4 119 8 220 9 226 1 8 -285 30
-290 22 -3 -6 -51 -1283 -48 -1286 2 -2 67 -6 144 -9 l140 -5 0 -92 c0 -51 -3
-125 -6 -166 l-7 -74 -531 22 c-292 12 -537 22 -543 22 -15 1 -18 124 -6 255
l6 78 143 -7 142 -7 6 93 c8 117 46 1068 46 1142 l0 54 -141 7 c-78 4 -143 6
-144 4 -2 -2 -6 -86 -9 -188 -4 -102 -9 -203 -12 -225 l-4 -40 -167 8 c-92 4
-167 8 -168 10 -1 1 5 176 14 390 l15 387 90 -1 c50 0 447 -15 883 -32z
m-4193 -254 c17 -61 126 -576 122 -580 -7 -8 -350 -82 -355 -78 -2 3 -17 64
-33 137 -16 73 -30 134 -32 135 -5 5 -575 -123 -582 -130 -4 -3 15 -102 41
-220 l47 -214 140 34 c77 18 144 33 150 33 6 0 7 19 3 49 l-7 49 84 15 c46 8
84 14 85 13 6 -5 111 -511 108 -514 -2 -2 -40 -12 -85 -22 l-81 -18 -10 26
c-5 15 -14 39 -20 53 l-10 26 -142 -34 c-77 -19 -142 -35 -143 -36 -2 -3 106
-490 109 -494 5 -4 576 123 583 130 3 3 -7 66 -24 139 -16 73 -26 136 -23 139
7 8 351 83 356 77 9 -9 132 -594 127 -599 -9 -9 -1663 -372 -1668 -366 -2 2
-20 73 -38 158 -23 104 -31 156 -24 161 6 3 50 14 98 23 48 9 93 21 100 25 11
7 -15 135 -124 632 -76 342 -139 624 -141 626 -1 1 -51 -8 -111 -22 -60 -13
-110 -24 -110 -23 -3 4 -73 322 -71 323 4 4 1643 362 1659 363 9 1 19 -7 22
-16z m7887 -242 c498 -113 810 -413 879 -844 18 -107 8 -298 -21 -407 -77
-298 -270 -538 -531 -659 -147 -69 -236 -86 -438 -86 -191 0 -268 12 -435 67
-205 66 -394 187 -513 329 -79 94 -164 261 -194 384 -31 126 -31 343 -1 465
105 420 382 691 783 765 104 20 356 12 471 -14z m-10174 -419 c29 -75 55 -144
58 -152 4 -12 -21 -26 -110 -59 -63 -25 -115 -48 -115 -51 0 -4 88 -234 196
-511 107 -277 211 -545 231 -596 l35 -92 52 21 c134 53 180 68 187 61 10 -10
121 -295 116 -299 -5 -6 -951 -323 -954 -321 -10 11 -115 298 -110 303 3 3 59
17 124 31 65 14 119 26 120 27 1 1 -67 186 -151 411 -132 352 -157 410 -172
407 -11 -2 -21 -5 -23 -7 -2 -2 -73 -336 -158 -742 -86 -406 -158 -741 -162
-745 -3 -3 -89 71 -191 165 -826 765 -844 781 -863 750 -7 -11 300 -788 310
-786 4 1 53 29 108 62 54 34 102 58 106 53 3 -4 30 -68 59 -142 28 -74 54
-140 56 -146 6 -14 -735 -349 -747 -337 -9 9 -121 294 -117 298 2 1 54 21 116
45 87 33 112 47 109 59 -4 17 -458 1185 -460 1187 -1 1 -53 -18 -116 -43 -62
-24 -116 -42 -118 -39 -6 6 -122 300 -120 303 2 1 185 85 407 187 343 157 407
183 420 172 433 -372 794 -676 797 -672 3 3 53 247 112 543 l106 537 390 127
c215 70 397 128 405 128 10 0 31 -43 67 -137z m12468 -322 c363 -138 695 -265
738 -282 42 -16 77 -34 77 -39 0 -9 -209 -561 -215 -567 -4 -4 -328 118 -338
128 -4 3 15 65 42 136 33 87 45 131 37 135 -35 20 -547 212 -551 207 -8 -8
-155 -391 -155 -403 0 -6 63 -34 140 -62 l141 -51 20 40 c23 45 27 45 123 3
46 -20 57 -29 52 -43 -69 -187 -183 -472 -191 -472 -5 0 -43 12 -83 27 -81 31
-75 20 -56 111 6 29 5 29 -123 75 -70 26 -133 47 -139 47 -15 0 -189 -459
-178 -470 5 -5 79 -36 164 -68 85 -33 163 -63 173 -67 23 -10 21 -23 -34 -197
-34 -109 -43 -129 -57 -123 -9 4 -244 94 -522 200 -278 106 -513 197 -522 200
-10 4 -18 12 -18 19 0 19 108 290 117 293 4 2 53 -15 108 -36 88 -34 101 -37
106 -22 4 9 107 277 229 596 122 319 224 583 226 586 3 5 -46 25 -192 80 -22
8 -21 10 32 151 30 79 57 148 59 155 3 9 21 6 67 -11 35 -13 360 -137 723
-276z m-15520 -1202 c105 -182 191 -334 193 -339 2 -4 -61 -46 -140 -93 -130
-77 -144 -83 -156 -68 -7 9 -59 97 -115 194 -56 98 -104 178 -107 178 -17 0
-245 -140 -242 -150 2 -10 579 -1014 621 -1081 l16 -27 122 70 c67 38 126 67
131 64 12 -7 166 -275 161 -279 -2 -2 -202 -117 -444 -256 -242 -140 -454
-262 -471 -272 l-30 -18 -76 132 c-42 73 -78 138 -80 145 -2 9 41 40 107 78
61 36 116 69 124 73 10 6 -64 142 -304 557 -174 302 -320 553 -325 557 -8 9
-249 -123 -250 -137 0 -5 44 -86 99 -180 54 -94 103 -181 109 -193 11 -20 3
-26 -134 -103 -81 -46 -149 -79 -153 -74 -19 21 -376 650 -376 663 0 10 1507
891 1525 890 3 0 91 -149 195 -331z m18177 -54 c249 -142 454 -258 456 -260 4
-3 -145 -264 -158 -278 -5 -5 -55 18 -115 53 -59 33 -110 61 -113 61 -4 -1
-119 -202 -257 -447 -334 -597 -356 -632 -428 -710 -125 -134 -251 -189 -411
-181 -157 9 -303 79 -440 212 -112 108 -133 185 -106 393 12 90 53 228 78 261
l17 22 85 -29 c47 -16 97 -33 111 -39 l26 -10 -23 -69 c-29 -85 -29 -132 0
-207 19 -50 28 -62 57 -72 94 -34 192 -3 247 79 31 45 577 1011 587 1039 5 13
-19 31 -114 84 -67 37 -121 71 -121 76 0 15 152 278 161 278 4 0 212 -115 461
-256z m-8896 -14 c913 -36 1731 -129 2572 -290 2829 -545 5456 -1805 7662
-3676 2063 -1750 3681 -3982 4693 -6474 996 -2451 1392 -5091 1166 -7760 -141
-1663 -535 -3308 -1166 -4860 -1080 -2660 -2853 -5025 -5108 -6816 -2981
-2367 -6614 -3634 -10420 -3634 -817 0 -1554 51 -2345 161 -3771 526 -7258
2336 -9880 5129 -1311 1397 -2376 3009 -3142 4760 -1464 3346 -1789 7104 -923
10685 380 1573 1014 3130 1850 4545 1149 1947 2715 3675 4541 5012 1321 968
2769 1734 4309 2278 1579 558 3213 868 4945 939 292 12 952 12 1246 1z m10196
-790 c200 -143 363 -265 363 -270 0 -13 -175 -260 -184 -260 -4 0 -36 20 -71
45 -35 25 -67 42 -71 38 -37 -38 -609 -852 -630 -898 -68 -143 -18 -270 135
-341 96 -45 206 -22 283 58 17 18 169 225 337 460 l306 428 -60 40 c-32 22
-61 44 -64 48 -4 8 147 229 177 259 9 9 79 -36 312 -203 165 -118 300 -220
299 -227 -1 -16 -174 -257 -184 -257 -4 0 -49 30 -100 66 -89 63 -94 65 -110
47 -10 -10 -158 -216 -331 -458 -172 -242 -339 -466 -370 -498 -39 -39 -82
-69 -134 -94 -177 -84 -400 -44 -636 112 -154 103 -296 265 -341 392 -26 74
-34 185 -19 265 23 120 85 222 410 675 l310 432 -89 63 c-49 35 -90 67 -90 72
0 8 180 266 186 266 2 0 167 -117 366 -260z m-21750 -340 c175 -54 316 -208
364 -400 32 -127 7 -289 -61 -391 -14 -21 -25 -40 -25 -42 0 -2 42 -3 93 -3
77 0 101 -4 147 -24 52 -23 227 -115 336 -176 l51 -28 77 59 c43 33 88 68 101
78 l24 18 100 -133 c55 -73 97 -136 93 -139 -4 -3 -116 -90 -249 -193 l-242
-187 -108 97 c-345 308 -647 396 -866 251 -26 -18 -45 -37 -43 -43 4 -11 278
-377 301 -402 9 -10 31 2 105 58 52 39 97 69 101 68 4 -2 46 -55 94 -118 49
-63 92 -120 97 -126 5 -8 -124 -111 -392 -315 -220 -167 -405 -305 -410 -307
-8 -3 -186 226 -195 251 -2 6 42 47 99 90 l104 78 -390 514 -389 514 -97 -73
c-53 -40 -102 -75 -108 -79 -14 -8 -211 251 -198 262 39 34 975 739 1025 771
134 86 318 114 461 70z m23483 -1009 c98 -38 196 -109 252 -182 65 -84 140
-215 169 -296 15 -40 30 -73 35 -73 4 0 29 25 54 55 26 30 52 55 57 55 6 0 66
-50 134 -111 107 -97 122 -114 112 -128 -15 -18 -349 -393 -384 -430 l-22 -24
-126 114 c-69 62 -126 117 -126 120 0 4 12 33 27 65 36 77 37 184 4 258 -49
110 -165 242 -252 286 -85 44 -151 24 -198 -60 -51 -91 -29 -195 86 -415 207
-394 253 -513 261 -677 6 -126 -8 -208 -48 -294 -57 -118 -169 -214 -298 -254
-202 -63 -436 27 -716 274 -164 145 -247 270 -315 474 l-31 94 162 224 c173
239 174 240 177 147 2 -69 63 -338 104 -465 105 -316 208 -458 336 -460 46 0
70 14 102 60 22 32 24 45 23 141 -1 94 -4 117 -33 196 -18 50 -82 187 -141
305 -128 255 -150 320 -150 437 0 105 19 184 70 288 79 160 188 256 340 301
29 9 83 12 150 10 90 -3 117 -8 185 -35z m-25439 -1096 l1038 -396 81 81 80
80 118 -118 117 -117 -335 -335 -335 -335 -117 117 -118 118 95 95 c52 52 92
96 89 98 -8 9 -275 117 -286 117 -6 0 -89 -84 -185 -187 -95 -103 -201 -217
-235 -254 -35 -37 -63 -73 -63 -81 0 -9 21 -62 46 -119 25 -57 50 -115 55
-128 9 -22 13 -20 88 60 l79 84 116 -120 116 -120 -307 -302 -308 -302 -117
117 -118 117 86 86 86 86 -406 1020 c-223 561 -406 1023 -406 1027 0 3 2 6 4
6 3 0 472 -178 1042 -395z m27103 -494 c229 -256 489 -546 578 -645 90 -100
163 -184 163 -187 0 -4 -71 -69 -157 -146 -87 -78 -216 -193 -288 -257 -71
-64 -133 -116 -136 -116 -3 0 -54 55 -114 121 -77 87 -106 125 -99 135 5 7 80
76 166 154 l158 141 -97 109 -97 108 -57 -51 c-32 -29 -247 -221 -478 -427
-231 -206 -420 -379 -420 -383 -1 -5 42 -56 94 -114 l95 -105 -52 -46 c-29
-26 -84 -75 -122 -110 -39 -34 -73 -61 -76 -60 -5 2 -634 704 -716 798 -11 13
4 30 105 120 65 58 122 105 127 105 5 0 51 -46 102 -103 93 -102 94 -102 116
-85 68 54 936 839 934 845 -5 12 -181 208 -188 208 -4 0 -79 -65 -169 -145
-89 -80 -165 -145 -170 -145 -12 0 -223 239 -219 249 2 4 131 123 288 264 230
206 288 253 299 244 8 -7 201 -221 430 -476z m-28533 -576 c236 -45 452 -250
499 -472 20 -94 19 -166 -5 -259 -38 -149 -84 -223 -323 -523 l-47 -59 141
-112 c77 -61 146 -113 152 -115 7 -2 47 41 90 96 42 54 80 99 85 99 8 0 246
-189 249 -198 2 -6 -587 -756 -620 -789 -10 -10 -38 8 -132 83 -66 53 -124 99
-129 104 -4 4 26 50 67 102 58 71 73 96 64 104 -32 30 -998 796 -1001 793 -1
-2 -35 -46 -75 -97 l-73 -93 -42 34 c-22 18 -80 64 -128 101 -50 40 -85 73
-81 80 27 46 702 885 753 936 123 123 279 192 447 199 17 0 66 -6 109 -14z
m29918 -1119 c174 -239 316 -439 316 -444 0 -11 -244 -192 -258 -192 -5 0 -46
52 -91 115 -51 71 -87 112 -94 108 -7 -3 -241 -173 -520 -376 -321 -233 -507
-374 -503 -382 2 -7 39 -60 80 -118 42 -58 76 -109 75 -114 0 -9 -259 -197
-263 -192 -1 2 -112 155 -246 339 -134 184 -279 383 -322 442 l-78 107 131 96
c72 52 134 95 138 95 3 0 40 -48 81 -106 41 -58 80 -110 86 -115 8 -6 175 110
515 357 277 201 510 372 518 379 12 12 1 31 -69 128 -45 64 -83 117 -84 120
-2 8 258 195 266 191 3 -2 148 -200 322 -438z m-31314 -659 c135 -83 249 -154
254 -158 5 -4 -35 -78 -88 -163 -92 -148 -98 -155 -119 -144 -12 6 -64 38
-116 70 -51 32 -97 60 -102 61 -4 1 -78 -112 -164 -252 -128 -207 -154 -256
-143 -266 12 -11 300 -189 345 -214 18 -9 27 3 97 120 73 123 77 132 59 144
-61 44 -60 35 -8 113 43 65 49 70 69 60 20 -10 417 -257 424 -263 5 -4 -14
-38 -54 -103 l-34 -52 -49 25 -50 25 -72 -123 c-39 -67 -73 -125 -75 -128 -6
-11 427 -272 435 -263 16 18 313 505 310 508 -2 1 -51 31 -109 66 -58 35 -111
69 -119 76 -11 10 2 36 74 155 48 79 93 149 99 155 8 9 47 -11 151 -75 77 -48
195 -121 262 -163 l123 -75 -253 -409 c-139 -225 -342 -554 -451 -731 l-198
-321 -132 80 c-72 44 -135 84 -140 88 -5 5 16 49 48 100 31 51 56 95 56 99 0
10 -1070 666 -1086 666 -8 0 -39 -38 -68 -85 -32 -53 -58 -85 -68 -84 -9 1
-73 36 -143 79 -95 59 -125 81 -120 93 18 48 891 1449 900 1445 5 -4 120 -74
255 -156z m31715 -508 c323 -45 605 -260 770 -589 74 -147 97 -235 103 -393
l5 -137 62 35 63 35 81 -142 c45 -78 78 -145 74 -149 -13 -11 -586 -340 -588
-337 -2 3 -154 267 -161 279 -2 3 13 28 33 55 118 162 140 356 59 518 -115
233 -336 353 -582 316 -261 -40 -508 -214 -605 -427 -79 -172 -57 -368 59
-525 75 -102 170 -164 299 -194 79 -19 234 -14 323 10 30 9 55 14 56 13 1 -1
7 -69 13 -152 6 -82 14 -177 17 -211 l6 -60 -74 -15 c-103 -20 -295 -17 -383
5 -257 67 -478 253 -638 541 -61 109 -114 246 -138 356 -22 102 -27 284 -9
365 48 222 167 410 349 554 251 198 538 287 806 249z m-32465 -1683 c52 -15
149 -53 215 -86 215 -106 371 -256 465 -445 72 -146 84 -202 85 -375 0 -157
-12 -220 -65 -355 -21 -53 -394 -889 -481 -1077 -7 -16 -17 -28 -24 -28 -11 0
-228 95 -274 120 -19 10 -17 16 40 142 33 72 56 134 52 138 -26 22 -1165 522
-1172 514 -4 -5 -32 -64 -61 -131 -30 -68 -57 -123 -61 -123 -4 0 -72 29 -151
65 -86 39 -142 69 -140 77 8 32 439 983 479 1058 163 304 360 462 653 525 104
23 321 13 440 -19z m34298 -1059 c179 -433 323 -790 319 -793 -9 -10 -559
-235 -563 -231 -12 12 -140 333 -135 339 3 3 63 29 132 58 l126 51 -115 277
c-63 152 -115 278 -116 279 -2 2 -88 -32 -192 -75 -104 -43 -197 -81 -206 -85
-15 -5 -9 -24 44 -147 55 -127 63 -141 82 -136 75 22 70 24 100 -59 15 -42 25
-79 23 -81 -10 -10 -471 -194 -480 -191 -8 2 -67 133 -67 148 0 4 20 19 45 33
25 15 45 29 45 31 0 6 -109 257 -114 262 -3 3 -110 -39 -239 -92 l-234 -97
114 -276 c63 -153 116 -278 118 -280 1 -2 62 22 135 52 l132 55 22 -52 c59
-135 118 -288 113 -293 -15 -16 -561 -234 -567 -227 -10 10 -650 1559 -650
1572 0 12 292 133 301 124 4 -5 24 -50 44 -101 21 -50 40 -94 44 -97 6 -3
1178 478 1187 488 1 1 -17 49 -41 107 -39 94 -42 106 -27 113 83 37 279 115
286 113 4 -1 155 -356 334 -789z m-36903 -4182 c66 -8 134 -17 151 -20 l30 -5
-13 -111 c-8 -62 -12 -113 -11 -115 2 -1 273 -37 603 -78 330 -42 616 -79 636
-82 l37 -5 13 105 c7 58 15 110 19 115 6 10 311 -25 321 -37 5 -6 -207 -1692
-213 -1697 -5 -4 -599 73 -605 79 -5 4 35 357 41 363 1 2 66 -5 144 -15 96
-13 142 -15 142 -8 0 6 16 130 35 276 19 146 35 276 35 290 l0 26 -217 26
c-119 15 -219 26 -220 24 -4 -4 -33 -251 -33 -283 0 -17 8 -23 40 -28 22 -4
42 -10 44 -14 5 -8 -21 -151 -29 -159 -3 -3 -120 10 -261 28 l-256 34 7 80 c4
45 9 84 11 88 3 5 30 8 60 8 30 0 54 3 54 8 0 4 7 67 15 141 8 74 13 136 10
139 -8 8 -490 69 -497 63 -3 -3 -18 -87 -33 -186 -15 -99 -28 -181 -29 -182
-2 -2 -317 54 -321 58 -3 4 130 1021 140 1067 6 26 0 26 150 7z m36694 -95 c6
-56 11 -111 11 -123 1 -51 -39 -52 915 28 494 42 902 74 907 73 4 -2 -264
-304 -598 -671 -333 -368 -604 -671 -602 -673 5 -4 809 73 813 78 2 2 -4 54
-11 117 -10 80 -11 116 -4 121 11 7 311 42 316 37 3 -2 102 -841 100 -844 -1
-1 -74 -10 -163 -21 l-161 -18 -6 30 c-3 17 -10 75 -17 129 -6 53 -14 97 -18
97 -3 1 -291 -32 -638 -72 l-633 -73 0 -25 c1 -14 6 -71 13 -128 7 -57 11
-105 8 -106 -16 -10 -314 -37 -320 -30 -8 9 -92 647 -91 689 0 12 159 196 395
459 217 242 394 441 392 442 -5 4 -537 -33 -542 -38 -3 -3 1 -59 9 -124 8 -66
13 -120 12 -121 -1 -1 -74 -10 -164 -21 l-162 -18 -5 30 c-8 49 -95 802 -95
824 0 17 14 21 128 34 70 9 143 16 163 17 l36 1 12 -100z m-36817 -2100 l58 0
0 -113 0 -114 467 -6 c256 -4 546 -7 643 -7 l177 0 5 110 c3 61 8 113 11 116
3 4 78 3 167 -1 l162 -8 -6 -121 c-3 -66 -9 -451 -12 -854 -4 -403 -9 -734
-13 -735 -3 -1 -142 -1 -308 1 l-303 4 0 184 0 184 144 0 144 0 4 298 c2 163
2 300 0 305 -2 4 -102 7 -223 7 l-220 0 3 -152 3 -153 43 -3 43 -3 -3 -87 -3
-87 -260 4 c-143 2 -263 6 -266 10 -3 3 -4 43 -1 87 l4 82 54 7 54 6 0 150 0
149 -260 0 -260 0 0 -299 0 -298 38 -7 c20 -3 85 -6 145 -6 l107 0 0 -132 c0
-73 -3 -157 -7 -187 l-6 -54 -306 7 c-168 4 -306 8 -307 9 -1 1 2 283 6 627 5
344 9 730 10 859 l0 234 107 -6 c58 -4 132 -7 165 -7z m37861 -355 c406 -61
706 -336 807 -742 65 -261 42 -588 -57 -823 -98 -231 -281 -419 -497 -509
-154 -64 -212 -75 -411 -75 -155 0 -191 3 -261 22 -296 80 -518 263 -640 526
-72 158 -104 319 -104 531 0 460 210 822 572 990 183 84 383 111 591 80z
m-36209 -1822 c3 -21 34 -263 68 -538 54 -441 61 -521 61 -675 0 -155 -3 -186
-25 -271 -44 -163 -117 -288 -239 -405 -90 -85 -143 -123 -251 -174 -218 -104
-509 -133 -742 -75 -350 89 -586 337 -660 695 -15 75 -159 1240 -154 1245 3 4
322 43 325 41 1 -1 10 -67 20 -147 18 -143 18 -144 43 -142 47 5 1185 143
1221 149 l35 5 -18 141 c-10 78 -15 144 -12 147 6 6 235 37 291 40 29 1 32 -2
37 -36z m35186 -629 c74 -9 138 -18 141 -20 3 -2 -3 -67 -13 -145 -11 -78 -18
-142 -16 -144 7 -6 1270 -166 1274 -162 3 2 12 63 21 135 9 72 19 136 23 142
5 8 49 5 156 -9 81 -12 152 -21 156 -21 4 0 8 -10 8 -22 0 -29 -132 -1061
-137 -1067 -8 -10 -315 34 -320 46 -3 6 3 71 12 143 9 72 14 134 11 137 -3 4
-277 41 -608 84 -332 43 -617 80 -634 83 l-31 4 -17 -141 c-10 -78 -19 -144
-21 -147 -2 -3 -75 3 -162 15 -124 16 -158 23 -161 36 -3 14 123 1007 133
1057 4 17 11 21 28 17 12 -2 83 -12 157 -21z m-5 -1660 c198 -48 362 -88 364
-90 5 -4 -56 -274 -70 -310 -8 -22 -9 -22 -225 32 -119 30 -218 53 -220 52 -6
-7 -67 -278 -63 -282 2 -2 276 -69 609 -150 333 -81 612 -150 622 -152 13 -4
22 18 49 133 18 76 34 140 36 142 2 3 75 -13 163 -34 129 -31 159 -42 156 -55
-3 -8 -62 -246 -131 -529 -69 -283 -126 -516 -128 -517 -4 -4 -302 68 -310 75
-4 4 6 63 23 132 16 68 30 131 30 139 0 13 -126 47 -607 165 -335 81 -615 150
-624 153 -14 3 -22 -19 -48 -127 -17 -72 -31 -136 -31 -144 0 -9 63 -28 205
-62 113 -27 210 -52 216 -56 9 -5 1 -50 -26 -160 -21 -85 -41 -157 -44 -161
-6 -7 -741 169 -753 180 -3 4 44 214 107 467 62 253 156 639 210 858 83 338
100 397 114 393 9 -3 178 -44 376 -92z m-34841 9 c8 -28 394 -1606 398 -1627
3 -17 -26 -27 -287 -92 -159 -41 -295 -74 -300 -74 -11 0 -99 350 -90 358 3 3
64 19 137 37 73 17 132 36 132 41 -4 24 -137 570 -141 573 -4 5 -407 -89 -423
-99 -7 -5 1 -52 26 -146 20 -76 38 -142 40 -145 2 -3 23 -3 48 1 l45 7 10 -48
c6 -27 13 -66 17 -86 l6 -38 -251 -59 c-152 -36 -255 -56 -260 -50 -8 8 -41
132 -41 152 0 5 21 17 48 27 26 10 48 19 49 20 3 2 -67 278 -72 283 -3 3 -488
-117 -492 -122 -3 -2 137 -576 141 -583 1 -1 64 14 141 32 76 19 140 33 141
32 11 -16 84 -351 78 -356 -10 -10 -587 -151 -593 -146 -5 6 -410 1659 -406
1663 8 8 316 79 319 73 2 -3 14 -50 27 -105 13 -54 28 -100 35 -103 10 -3
1233 293 1241 301 2 2 -8 51 -23 110 -15 59 -25 108 -23 110 6 5 281 74 301
75 9 1 19 -7 22 -16z m707 -2654 c120 -321 225 -614 233 -651 55 -234 -28
-453 -217 -577 -88 -57 -166 -83 -265 -89 -161 -9 -307 43 -412 148 -58 58
-70 63 -70 29 0 -9 -9 -47 -21 -85 -20 -65 -27 -73 -190 -241 -93 -96 -169
-180 -169 -186 0 -6 18 -60 41 -120 23 -59 39 -110 38 -112 -9 -8 -303 -115
-307 -111 -7 7 -222 570 -222 581 1 6 38 31 84 57 265 151 456 341 518 516 27
76 29 198 4 270 -14 42 -22 52 -35 47 -9 -4 -118 -45 -243 -92 -136 -51 -228
-91 -228 -98 0 -7 16 -55 35 -105 19 -50 35 -98 35 -105 0 -14 -291 -127 -302
-117 -3 4 -83 212 -176 462 -94 250 -173 462 -177 471 -5 13 22 27 146 73 84
31 155 53 159 49 4 -4 27 -60 51 -125 42 -115 43 -116 68 -106 15 5 285 106
601 224 316 118 576 217 578 219 2 2 -17 59 -42 127 -26 67 -43 124 -39 126
93 37 290 109 297 108 6 -1 108 -265 227 -587z m35027 385 c81 -31 148 -57
149 -58 2 -2 -337 -879 -341 -884 -4 -4 -290 108 -299 117 -4 4 13 60 38 125
25 64 45 119 45 121 0 7 -229 4 -279 -3 l-43 -7 -114 -334 -114 -334 68 -61
c36 -34 86 -78 109 -100 l43 -38 8 23 c5 13 22 60 37 104 16 44 29 81 30 82 2
4 290 -108 298 -117 8 -7 -285 -784 -302 -802 -11 -12 -306 108 -304 123 2 8
21 59 43 114 l39 100 -152 150 c-84 83 -438 428 -787 769 -349 340 -636 622
-638 627 -2 5 9 9 25 9 52 0 2196 120 2199 123 2 1 20 45 40 97 39 101 43 110
50 110 3 0 71 -25 152 -56z m-2266 -1822 c163 -86 297 -161 297 -167 1 -5 -31
-72 -70 -147 l-70 -138 -93 0 c-154 0 -275 -49 -382 -156 -111 -110 -174 -254
-175 -398 -1 -101 14 -162 59 -250 146 -282 575 -462 861 -361 227 80 400 348
363 564 -13 76 -61 177 -106 220 l-31 30 -78 -150 -79 -150 -136 72 c-76 39
-141 75 -146 80 -7 6 387 780 411 809 8 9 135 -64 212 -121 166 -122 268 -273
322 -476 29 -106 31 -312 5 -433 -52 -245 -164 -471 -326 -659 -124 -144 -316
-265 -495 -312 -104 -28 -293 -30 -410 -5 -299 65 -580 260 -712 495 -75 132
-107 234 -123 383 -40 390 198 865 516 1030 l63 33 -70 38 -70 39 35 61 c18
34 52 99 75 145 23 45 45 82 49 82 4 0 141 -71 304 -158z m-33595 -813 c28
-52 53 -97 55 -101 2 -3 498 37 1103 91 605 53 1102 96 1103 95 2 -1 -303
-401 -677 -888 l-681 -886 54 -100 54 -100 -31 -18 c-84 -50 -249 -133 -258
-130 -6 2 -109 188 -230 413 -200 375 -217 411 -201 423 24 19 258 142 269
142 4 0 35 -52 68 -115 33 -63 63 -114 66 -112 7 2 179 213 193 235 6 10 -315
573 -349 610 -11 12 -35 11 -151 -3 -77 -9 -141 -18 -143 -20 -2 -2 20 -44 48
-93 28 -49 51 -93 51 -98 0 -11 -258 -149 -278 -149 -20 0 -415 746 -403 758
18 18 266 147 276 143 6 -1 33 -45 62 -97z m32340 -1080 c162 -108 155 -82 62
-221 -45 -66 -77 -124 -72 -128 4 -4 208 -141 453 -305 245 -164 480 -322 523
-352 42 -29 79 -53 82 -53 3 0 41 54 85 120 53 79 85 118 93 114 7 -4 69 -45
138 -92 l127 -84 -303 -451 c-166 -248 -307 -453 -312 -454 -8 -3 -127 72
-266 168 -5 4 28 62 73 129 45 67 78 126 73 130 -8 7 -1029 691 -1050 704 -8
4 -40 -35 -93 -114 -44 -66 -83 -120 -86 -120 -3 0 -66 41 -140 91 l-134 91
163 241 c90 133 228 338 306 455 98 147 147 212 156 208 8 -3 63 -37 122 -77z
m-29534 -470 c147 -206 285 -400 307 -431 l40 -57 -132 -95 c-73 -52 -136 -92
-140 -90 -4 3 -42 54 -84 114 l-78 110 -26 -18 c-154 -100 -1020 -729 -1016
-737 8 -22 318 -455 325 -455 4 0 115 77 246 170 131 94 241 170 244 170 5 -1
190 -257 214 -296 5 -8 -112 -97 -374 -284 -289 -206 -384 -269 -390 -259 -4
8 -231 327 -503 709 -273 382 -495 698 -493 702 2 7 253 188 260 188 3 0 38
-46 78 -102 39 -57 75 -107 80 -112 4 -5 244 160 532 366 l525 374 -80 113
c-44 62 -78 114 -76 116 23 23 256 184 263 181 6 -1 130 -171 278 -377z
m28925 -877 c155 -128 283 -236 286 -240 4 -7 -147 -198 -194 -246 -18 -19
-22 -16 -189 123 -94 77 -173 141 -175 141 -7 0 -188 -221 -184 -224 1 -2 225
-186 496 -409 271 -224 494 -407 495 -407 2 0 43 49 92 109 50 61 92 110 95
110 12 2 251 -202 248 -211 -5 -15 -682 -837 -690 -838 -9 0 -248 201 -248
210 0 4 40 56 89 115 l89 108 -62 52 c-241 203 -927 765 -933 764 -8 0 -176
-204 -180 -217 -1 -4 74 -69 168 -146 93 -76 169 -143 169 -148 0 -12 -200
-253 -210 -253 -14 0 -600 489 -597 498 1 5 254 314 562 686 472 572 562 677
576 667 8 -6 142 -116 297 -244z m-26675 -1806 c164 -169 226 -271 247 -402
32 -199 -83 -420 -266 -510 -93 -46 -175 -54 -280 -27 l-70 19 24 -70 c63
-183 30 -351 -96 -488 -170 -184 -406 -230 -640 -123 -124 57 -203 125 -620
539 l-412 410 117 118 118 118 87 -87 88 -88 88 90 c49 50 252 255 452 458
l364 368 -82 82 c-45 45 -82 87 -82 92 0 5 50 60 112 122 l112 112 326 -321
c179 -176 365 -362 413 -412z m25190 206 l217 -217 -124 -124 -123 -123 -57
32 c-114 64 -241 51 -380 -40 -134 -88 -209 -182 -209 -263 0 -51 27 -86 94
-120 48 -25 62 -28 119 -24 80 7 130 25 392 143 250 114 383 159 505 174 301
37 538 -111 607 -377 20 -78 20 -150 0 -232 -58 -233 -292 -491 -580 -639
-125 -64 -303 -135 -324 -129 -9 2 -110 80 -226 173 l-209 169 105 7 c264 19
661 122 794 205 112 71 167 191 116 256 -59 75 -200 91 -364 43 -99 -30 -202
-71 -380 -153 -271 -123 -419 -134 -615 -42 -290 135 -410 395 -311 676 60
171 201 304 425 401 39 16 90 36 115 43 25 7 48 15 53 19 4 4 -20 33 -54 65
l-61 58 119 119 c65 65 122 118 128 118 6 0 108 -98 228 -218z m-1232 -1179
c101 -130 185 -240 187 -243 5 -11 -290 -233 -297 -223 -21 32 -165 213 -168
213 -3 0 -110 -82 -239 -182 -145 -112 -233 -186 -230 -194 3 -7 62 -86 132
-176 70 -90 129 -165 130 -166 4 -6 234 182 234 191 0 5 -10 25 -21 44 -12 19
-20 35 -18 37 39 30 141 97 143 95 1 -2 73 -97 159 -211 l157 -207 -64 -50
c-35 -28 -68 -51 -72 -51 -4 0 -25 16 -45 36 l-37 37 -112 -91 c-61 -50 -112
-93 -113 -96 -3 -6 303 -396 311 -396 7 0 435 329 461 355 12 12 1 30 -73 125
-48 62 -84 116 -79 121 19 18 278 219 283 218 3 0 89 -109 192 -242 l186 -242
-21 -21 c-25 -24 -1324 -1034 -1330 -1034 -8 0 -197 248 -197 258 0 5 38 38
85 73 46 35 83 69 81 74 -7 21 -778 1005 -788 1005 -5 0 -48 -30 -94 -66 -47
-37 -86 -65 -88 -63 -1 2 -44 57 -95 123 -52 65 -94 124 -95 131 -1 10 1329
1054 1345 1055 3 0 88 -107 190 -237z m-22825 -48 c195 -152 354 -277 354
-279 0 -7 -191 -251 -199 -254 -4 -1 -36 20 -71 47 l-64 49 -16 -22 c-9 -11
-145 -185 -301 -386 -382 -489 -388 -500 -389 -598 0 -65 24 -115 79 -165 66
-60 117 -81 193 -82 124 0 145 22 773 836 l74 97 -60 47 c-37 29 -58 53 -55
61 3 8 47 67 97 133 80 103 95 118 109 108 9 -7 143 -111 298 -231 181 -141
279 -223 274 -231 -18 -30 -188 -244 -194 -245 -3 0 -48 32 -99 72 l-92 71
-20 -24 c-11 -13 -167 -213 -347 -444 -335 -430 -375 -477 -445 -524 -91 -62
-140 -76 -265 -75 -103 0 -123 4 -197 31 -245 93 -489 313 -563 509 -62 167
-34 348 79 514 23 34 182 242 353 462 254 327 308 403 297 412 -8 6 -49 37
-92 70 l-77 58 50 64 c28 35 73 93 101 129 28 36 53 65 56 65 3 0 164 -124
359 -275z m21177 -1078 l77 -127 -53 -34 c-28 -18 -71 -44 -94 -57 -28 -16
-43 -31 -43 -44 0 -11 83 -474 185 -1029 101 -556 183 -1011 182 -1013 -2 -1
-382 279 -845 622 -464 344 -848 625 -853 625 -6 0 -52 -25 -101 -56 -50 -30
-94 -52 -98 -47 -4 4 -44 68 -88 141 -81 132 -81 132 -59 146 12 8 197 120
412 250 303 184 392 233 401 223 17 -19 167 -268 163 -271 -2 -1 -44 -26 -92
-55 -48 -29 -87 -57 -85 -63 3 -9 721 -569 725 -565 3 3 -174 897 -178 902 -3
2 -42 -18 -87 -46 -45 -28 -88 -49 -95 -46 -21 9 -171 267 -161 277 5 5 162
101 349 214 265 161 342 203 351 193 6 -6 45 -69 87 -140z m-19298 -251 c275
-170 528 -328 561 -352 212 -150 295 -382 220 -608 -31 -91 -62 -144 -125
-210 -127 -134 -304 -194 -484 -163 l-48 8 19 -38 c11 -21 27 -62 37 -92 20
-62 18 -128 -15 -383 -16 -120 -17 -154 -7 -160 6 -5 54 -34 104 -66 51 -31
93 -60 93 -64 0 -5 -154 -261 -166 -277 -2 -2 -449 264 -533 318 -11 7 -7 24
22 92 82 194 121 362 122 524 0 163 -30 263 -107 351 -38 43 -105 94 -124 94
-11 0 -274 -418 -274 -436 0 -5 44 -36 98 -68 53 -33 98 -60 100 -62 6 -4
-170 -284 -176 -280 -79 42 -862 530 -860 536 10 25 164 270 171 270 4 0 55
-30 114 -66 86 -53 108 -63 118 -52 7 7 159 254 339 548 303 495 326 536 309
548 -10 7 -60 39 -111 69 -61 37 -91 61 -88 70 3 7 40 70 82 139 56 91 81 124
93 121 9 -2 241 -142 516 -311z m17314 -918 c34 -79 61 -148 61 -154 0 -6 -52
-33 -116 -60 -64 -27 -118 -54 -120 -59 -3 -6 144 -390 327 -854 182 -463 329
-844 327 -846 -2 -1 -369 173 -816 387 -448 214 -815 388 -817 386 -5 -4 294
-739 304 -751 4 -4 54 13 111 38 56 25 106 45 110 45 8 0 130 -278 130 -295 0
-5 -175 -85 -389 -176 l-389 -166 -66 150 c-36 83 -65 152 -63 153 1 2 54 25
117 52 74 32 114 54 113 63 -4 21 -493 1153 -503 1162 -4 5 -60 -14 -124 -41
-116 -50 -117 -51 -126 -29 -5 12 -34 80 -65 151 -30 72 -52 133 -48 136 5 4
152 71 329 148 l320 142 535 -253 c293 -140 535 -253 537 -252 3 3 -174 490
-183 505 -3 5 -20 3 -38 -5 -17 -7 -69 -29 -114 -48 l-81 -36 -67 152 c-37 83
-63 153 -58 155 4 1 184 79 398 172 215 93 393 169 396 169 4 1 34 -63 68
-141z m-15117 -254 c425 -180 777 -330 781 -334 7 -6 -213 -550 -229 -569 -2
-2 -80 29 -173 69 l-170 73 13 31 c7 17 32 75 55 130 23 54 41 100 39 102 -8
8 -550 235 -553 232 -6 -5 -164 -381 -167 -396 -2 -9 45 -33 132 -68 74 -30
137 -54 140 -54 4 0 16 18 28 39 l22 40 72 -34 c40 -18 74 -37 76 -43 2 -8
-191 -469 -202 -479 -1 -2 -38 11 -80 29 -86 35 -80 22 -60 116 5 27 3 28
-127 82 -110 45 -134 51 -142 39 -5 -8 -50 -113 -101 -234 l-93 -220 276 -117
c151 -65 278 -114 282 -110 4 4 28 59 54 122 26 63 51 119 56 124 8 9 325
-120 335 -136 4 -6 -218 -547 -232 -567 -2 -2 -1335 558 -1531 645 l-52 22 60
144 c34 79 64 147 68 151 5 4 50 -10 101 -33 51 -22 98 -40 105 -40 9 0 489
1119 502 1170 3 11 -23 26 -93 55 -53 22 -98 45 -101 51 -2 5 16 57 41 115 24
57 51 121 60 142 8 20 20 37 25 37 6 0 358 -147 783 -326z m2343 -1461 c76
-604 143 -1103 149 -1109 6 -6 55 -24 109 -39 l99 -29 -6 -29 c-10 -51 -87
-287 -93 -287 -7 0 -848 259 -879 270 l-22 9 48 153 c40 129 50 153 66 151 10
-1 67 -16 126 -34 59 -18 109 -31 111 -28 2 2 -3 74 -12 158 l-16 155 -330 88
c-181 48 -339 87 -349 85 -12 -1 -57 -49 -107 -113 l-88 -112 105 -28 c58 -15
106 -30 108 -33 5 -8 -83 -293 -94 -304 -6 -7 -784 223 -816 242 -12 7 79 317
93 314 4 0 57 -16 117 -33 l110 -33 16 21 c99 122 1405 1662 1410 1662 3 0 68
-494 145 -1097z m10408 745 c26 -84 43 -156 39 -159 -4 -4 -63 -24 -132 -45
-69 -20 -128 -39 -132 -43 -6 -6 355 -1217 366 -1228 2 -3 66 14 141 37 75 23
139 40 141 37 7 -7 97 -308 93 -311 -15 -13 -1042 -317 -1049 -310 -12 13 -99
304 -91 308 3 2 62 20 131 41 69 20 129 41 134 45 8 8 -348 1204 -364 1223 -3
4 -68 -11 -144 -34 -75 -23 -139 -40 -140 -38 -5 6 -96 313 -93 315 8 5 1025
313 1038 313 12 1 27 -37 62 -151z m-9153 -428 c228 -39 422 -73 431 -76 14
-4 12 -22 -12 -160 -15 -86 -30 -158 -32 -161 -3 -3 -40 1 -81 8 -42 6 -78 10
-80 8 -3 -2 -43 -230 -90 -506 -93 -540 -101 -625 -67 -698 23 -52 79 -101
133 -117 72 -20 176 -16 226 10 50 26 95 84 117 151 8 26 53 270 100 542 47
272 87 504 90 515 4 20 -1 23 -75 34 -44 7 -80 15 -80 17 0 21 54 309 59 315
3 3 170 -22 371 -56 283 -48 365 -65 365 -77 0 -48 -50 -302 -60 -306 -7 -2
-62 5 -121 15 -60 11 -110 20 -111 19 -1 -1 -45 -255 -98 -564 -95 -558 -113
-639 -159 -717 -35 -60 -133 -149 -198 -179 -102 -48 -176 -60 -343 -54 -402
14 -668 178 -735 452 -6 28 -11 93 -11 145 0 95 7 139 131 859 27 156 47 287
45 291 -3 4 -47 13 -98 20 -52 7 -100 16 -107 20 -11 7 -9 35 9 147 30 183 30
181 49 177 9 -2 204 -36 432 -74z m6744 -67 c13 -69 78 -574 74 -578 -8 -9
-353 -53 -359 -46 -4 3 -14 67 -23 141 -9 74 -18 135 -19 136 -4 2 -592 -78
-596 -82 -5 -5 51 -428 58 -436 3 -3 62 2 131 13 183 28 170 22 170 74 0 38 3
45 23 49 32 7 147 18 147 14 0 -2 14 -109 30 -238 39 -309 41 -286 -17 -294
-27 -4 -64 -9 -84 -12 -36 -5 -36 -5 -49 43 -7 26 -14 51 -16 54 -4 7 -280
-33 -288 -42 -7 -6 60 -488 68 -497 3 -3 92 7 197 22 105 15 193 26 194 24 5
-5 67 -320 63 -323 -5 -5 -1140 -156 -1144 -152 -6 6 -47 317 -43 322 3 2 50
10 107 18 56 8 105 17 109 20 5 5 -140 1109 -163 1242 l-5 31 -110 -15 c-60
-7 -111 -12 -113 -10 -8 8 -46 312 -40 318 6 7 1601 228 1656 230 32 1 37 -2
42 -26z m-2734 -258 c331 -66 575 -248 714 -533 112 -227 130 -533 46 -781
-149 -442 -566 -693 -1110 -668 -303 14 -539 110 -723 293 -308 308 -372 824
-150 1217 153 271 438 447 788 487 106 12 341 4 435 -15z"/>
<path d="M28603 43406 c-169 -39 -314 -174 -393 -365 -53 -129 -65 -194 -65
-351 0 -126 3 -154 23 -210 106 -299 432 -433 717 -293 312 152 456 718 256
1006 -120 172 -337 258 -538 213z"/>
<path d="M23660 41399 c-3147 -130 -6146 -1141 -8719 -2937 -1039 -725 -2022
-1600 -2870 -2552 -1139 -1279 -2068 -2719 -2755 -4273 -1116 -2522 -1574
-5284 -1335 -8062 223 -2604 1061 -5100 2452 -7310 1386 -2201 3281 -4048
5516 -5379 2431 -1448 5192 -2238 8016 -2294 1471 -29 2834 117 4230 454 2606
630 5030 1901 7045 3693 2287 2035 3956 4655 4824 7571 387 1300 608 2634 666
4015 12 296 12 1054 0 1350 -115 2735 -879 5326 -2263 7670 -1336 2262 -3233
4204 -5467 5595 -2289 1424 -4874 2256 -7565 2435 -523 34 -1280 45 -1775 24z
m799 -1043 c111 -330 202 -600 204 -601 1 0 285 2 632 6 346 4 631 6 633 4 2
-2 -65 -55 -150 -117 -84 -62 -313 -232 -509 -377 l-357 -264 202 -603 c111
-332 201 -604 199 -604 -1 0 -229 162 -508 360 -278 199 -512 363 -519 366
-12 5 -276 -187 -914 -664 -62 -46 -114 -82 -116 -81 -1 2 80 265 181 584 101
319 186 591 189 605 5 24 -24 46 -453 351 -252 179 -484 343 -515 365 -32 21
-57 42 -58 47 0 4 222 8 493 8 270 1 557 4 636 8 l144 6 159 505 c87 278 172
549 189 603 17 55 32 97 34 95 2 -1 94 -273 204 -602z m-6392 -1964 c298 153
891 457 961 494 45 23 82 39 82 35 0 -4 -128 -259 -285 -567 l-284 -559 452
-453 c364 -365 446 -453 422 -448 -69 13 -1195 186 -1214 186 -16 0 -69 -98
-303 -560 -156 -308 -285 -560 -288 -560 -3 0 -49 278 -104 618 -54 339 -101
620 -105 624 -5 5 -246 44 -1214 194 -22 3 -35 10 -30 14 7 7 652 338 973 500
80 41 146 74 147 75 2 1 -40 264 -92 586 -53 321 -98 604 -101 629 l-6 45 450
-449 450 -449 89 45z m13379 821 c-6 -20 -196 -1215 -196 -1231 0 -6 100 -61
223 -123 398 -200 908 -461 905 -464 -2 -1 -282 -46 -623 -100 -341 -54 -623
-101 -627 -104 -3 -3 -50 -286 -104 -629 -54 -342 -101 -619 -104 -615 -4 5
-134 258 -290 563 -155 305 -283 556 -285 558 -2 3 -1184 -184 -1235 -195 -17
-3 121 141 423 443 246 247 447 454 447 460 0 5 -128 261 -285 569 -157 307
-284 559 -283 561 2 1 257 -128 568 -286 l565 -289 450 450 c247 247 451 449
453 449 2 0 1 -8 -2 -17z m4105 -4669 c206 -279 379 -508 384 -510 6 -2 279
86 608 195 328 110 597 198 597 195 0 -2 -164 -233 -365 -514 -201 -281 -365
-514 -365 -518 0 -5 168 -235 374 -513 206 -277 371 -505 367 -506 -3 -2 -276
83 -605 187 -554 175 -600 188 -612 172 -7 -9 -172 -241 -366 -514 -194 -273
-356 -497 -360 -497 -3 -1 -8 282 -10 628 -1 346 -5 632 -8 635 -5 5 -891 286
-1105 351 -49 15 -94 30 -100 33 -5 3 263 96 595 207 l605 202 -3 554 c-1 305
-5 591 -9 637 -3 45 -3 82 -1 82 3 0 173 -228 379 -506z m-21545 -1029 c332
-104 604 -192 604 -195 -1 -3 -271 -94 -601 -203 l-600 -199 3 -634 c2 -349 1
-634 -2 -634 -3 1 -173 230 -378 509 l-374 509 -604 -202 c-332 -111 -604
-200 -604 -198 0 4 598 842 682 955 l57 78 -78 107 c-44 59 -214 289 -379 512
-165 223 -299 406 -298 407 1 1 271 -83 601 -188 330 -104 603 -189 607 -189
3 0 172 231 375 514 l368 515 9 -637 9 -637 603 -190z m10510 1158 c57 -157
127 -322 165 -390 54 -96 163 -208 239 -245 126 -62 -13 -58 2140 -58 l1965
-1 515 -626 c283 -345 514 -628 513 -631 -1 -3 -28 -13 -60 -24 -101 -34 -284
-127 -398 -202 -315 -210 -523 -504 -613 -866 l-26 -105 -3 -957 -4 -958 -914
0 -915 0 0 -3147 c0 -1732 -3 -3388 -7 -3680 l-6 -533 -904 0 -903 0 0 3680 0
3680 -930 0 -930 0 0 -2043 c0 -1124 -3 -2780 -7 -3680 l-6 -1637 -894 0 -893
0 0 3680 0 3680 -915 0 -914 0 -4 933 c-3 918 -3 933 -25 1027 -69 298 -181
515 -367 709 -180 187 -420 330 -669 396 -49 14 -90 26 -92 28 -2 2 299 291
669 642 l672 638 1700 1 c1617 1 1703 2 1759 19 259 80 442 286 541 609 l30
97 140 3 c77 2 184 5 237 6 l96 2 18 -47z m14073 -5825 c11 -68 56 -350 102
-626 l82 -502 31 -5 c17 -3 288 -44 601 -91 314 -47 584 -89 600 -93 28 -7 19
-13 -130 -88 -255 -129 -959 -494 -967 -501 -4 -4 39 -287 96 -629 56 -343
100 -623 98 -623 -2 0 -207 200 -454 445 l-450 445 -131 -69 c-431 -226 -990
-511 -994 -508 -2 3 124 259 281 569 l285 563 -450 444 c-247 244 -448 445
-446 447 2 3 284 -39 627 -91 342 -53 624 -94 625 -93 1 2 130 258 286 570
156 311 285 565 286 564 2 -1 12 -59 22 -128z m-28138 -653 c170 -327 190
-360 211 -357 13 2 293 48 622 102 330 55 602 98 605 95 3 -3 -188 -199 -424
-435 -236 -236 -435 -440 -443 -453 -14 -23 -2 -49 275 -585 160 -309 289
-562 287 -562 -1 0 -258 129 -570 287 l-567 286 -91 -94 c-50 -52 -252 -258
-450 -458 -275 -279 -357 -356 -352 -335 3 16 42 270 86 564 44 294 84 562 90
595 5 33 10 65 10 71 0 5 -254 136 -565 290 -310 153 -564 282 -565 285 0 3
280 52 623 108 342 57 623 104 624 104 1 1 42 274 92 607 50 333 94 616 97
630 4 20 25 -14 111 -180 59 -113 191 -367 294 -565z m28230 -6206 c-84 -261
-331 -1061 -331 -1072 0 -7 231 -177 514 -377 l514 -365 -231 -6 c-128 -4
-401 -7 -607 -9 -206 -1 -388 -5 -405 -9 l-29 -6 -187 -598 c-103 -329 -189
-600 -191 -602 -2 -2 -95 268 -207 600 l-203 604 -92 -4 c-126 -6 -1176 -16
-1176 -11 0 2 225 172 501 377 276 205 503 378 505 383 2 6 -86 278 -196 605
-110 327 -199 596 -197 598 2 2 15 -5 28 -16 109 -85 1005 -711 1014 -707 6 2
235 171 509 375 274 205 501 370 503 367 2 -2 -14 -59 -36 -127z m-26839 -61
c-109 -333 -334 -1050 -330 -1052 1 -2 226 -162 498 -356 272 -194 504 -361
515 -371 19 -19 4 -19 -617 -19 l-637 0 -44 -137 c-24 -76 -111 -348 -192
-606 -82 -257 -152 -464 -156 -460 -3 5 -95 275 -204 602 l-198 594 -633 -7
c-349 -4 -634 -5 -634 -2 0 2 230 174 510 381 281 207 510 378 510 379 0 1
-90 272 -200 601 -110 329 -199 599 -198 600 2 2 234 -163 517 -366 283 -202
519 -365 525 -361 6 3 236 172 510 374 274 203 501 366 503 364 3 -2 -18 -73
-45 -158z m22221 -344 c59 -7 161 -25 225 -40 118 -26 320 -88 335 -103 9 -9
-461 -620 -476 -621 -5 0 -21 8 -35 19 -15 10 -88 51 -162 91 -188 101 -301
180 -400 279 -92 92 -129 154 -138 227 -5 49 4 65 58 99 115 72 299 87 593 49z
m-18653 -42 c36 -12 85 -36 108 -54 35 -27 42 -38 42 -68 0 -121 -178 -311
-425 -455 -116 -67 -308 -170 -318 -170 -8 0 -477 596 -477 607 0 24 343 117
525 142 171 24 171 24 330 21 120 -2 163 -7 215 -23z m5976 8 c362 -29 578
-100 718 -235 102 -97 178 -266 198 -435 10 -84 9 -111 -6 -187 -53 -276 -281
-535 -723 -823 -148 -97 -185 -108 -222 -71 -29 29 -37 74 -55 277 l-16 181
84 224 c46 123 91 240 100 260 20 48 63 98 93 110 12 5 23 16 23 25 0 15 -9
16 -82 11 -46 -4 -107 -7 -135 -7 -70 0 -73 -25 -7 -60 43 -24 45 -27 39 -59
-7 -39 -134 -402 -144 -414 -7 -7 -201 330 -230 398 -12 28 -11 31 20 57 18
16 37 28 41 28 4 0 8 10 8 21 0 21 -3 22 -92 15 -50 -3 -126 -6 -170 -6 -70 0
-78 -2 -78 -19 0 -12 9 -20 29 -24 42 -9 117 -120 329 -492 l51 -90 17 -203
c17 -201 17 -203 -3 -230 -11 -15 -35 -30 -56 -35 -23 -6 -37 -15 -37 -24 0
-14 18 -15 147 -8 l147 7 -82 -61 c-215 -159 -281 -278 -261 -467 4 -38 6 -70
6 -70 -1 -1 -54 -7 -117 -13 -63 -6 -171 -25 -239 -41 -231 -57 -679 -212
-1146 -398 -589 -235 -895 -379 -1497 -703 -242 -131 -523 -267 -663 -322
-504 -199 -935 -237 -1129 -99 -29 20 -230 305 -796 1127 -417 605 -757 1101
-755 1103 2 2 20 -5 42 -16 47 -24 187 -67 268 -82 33 -6 121 -13 195 -17 479
-21 1088 148 2065 572 149 65 374 162 500 217 286 124 672 285 1000 416 138
55 394 159 570 232 495 204 919 337 1279 401 203 35 532 48 772 29z m6676 -10
c86 -6 210 -19 275 -30 321 -55 789 -197 1168 -355 116 -48 397 -162 625 -255
545 -220 821 -336 1305 -548 514 -224 663 -286 922 -382 587 -219 1026 -312
1393 -297 195 9 322 38 500 115 8 3 -2 -16 -21 -44 -20 -27 -350 -506 -734
-1064 -384 -558 -715 -1039 -737 -1067 -147 -199 -612 -181 -1183 44 -154 61
-394 178 -760 373 -986 524 -1807 856 -2340 946 -73 13 -158 17 -311 17 l-211
0 -12 146 c-7 80 -17 168 -22 195 -23 123 -102 225 -273 353 l-101 75 106 -7
c91 -6 107 -5 112 8 4 11 -4 19 -29 27 -50 17 -64 51 -64 160 0 78 36 697 43
739 1 8 106 -210 232 -484 127 -274 235 -497 240 -496 6 0 23 191 42 478 17
263 36 504 42 537 13 73 33 105 72 113 16 3 34 14 40 24 8 16 6 19 -13 20 -13
0 -76 4 -141 7 -102 6 -117 5 -117 -8 0 -9 15 -21 34 -28 33 -12 47 -34 60
-94 3 -15 -3 -165 -14 -335 -11 -169 -20 -324 -20 -343 0 -20 -4 -30 -9 -25
-5 6 -95 199 -201 430 -105 231 -195 423 -198 426 -4 4 -51 9 -104 13 -92 6
-98 5 -98 -13 0 -13 9 -20 29 -24 21 -5 37 -18 54 -49 l25 -43 -29 -434 c-16
-239 -34 -452 -40 -474 -14 -51 -50 -87 -88 -87 -20 0 -60 19 -116 55 l-86 55
3 464 3 464 24 26 c13 14 36 28 52 31 20 5 29 13 29 27 0 16 -5 19 -27 14 -26
-5 -298 -46 -309 -46 -2 0 -4 -9 -4 -19 0 -13 6 -19 18 -19 41 3 70 -12 81
-43 12 -34 16 -809 5 -809 -14 0 -146 111 -237 200 -145 140 -229 265 -278
416 -30 91 -32 255 -5 359 62 232 194 387 400 466 231 89 591 125 998 99z
m-12168 -873 c141 -401 256 -732 256 -736 0 -16 -320 -98 -515 -131 -152 -26
-428 -37 -547 -21 -184 25 -362 91 -478 180 -30 23 -60 39 -67 37 -15 -6 -20
9 -34 108 -10 74 -10 95 6 158 53 220 209 389 489 530 99 50 262 147 336 201
159 116 280 278 280 376 0 26 4 41 9 36 4 -6 124 -338 265 -738z m17499 589
c93 -138 256 -264 550 -422 233 -126 363 -247 450 -419 34 -69 67 -179 67
-226 0 -40 -47 -199 -59 -199 -4 0 -31 -19 -61 -41 -74 -56 -218 -125 -313
-149 -134 -34 -240 -43 -422 -37 -231 8 -424 40 -686 115 l-96 27 193 550
c107 303 224 637 261 743 67 188 68 191 75 150 4 -23 23 -64 41 -92z m-10868
-1447 c80 -433 145 -798 145 -812 0 -50 -87 -202 -161 -281 -38 -41 -78 -78
-88 -81 -43 -13 -887 254 -1055 335 -119 56 -190 111 -216 165 -14 30 -30 47
-46 51 -29 8 -30 16 -3 101 36 118 52 146 120 215 84 84 187 160 375 278 324
202 490 346 636 551 62 86 128 224 129 268 0 30 2 33 9 16 5 -11 75 -374 155
-806z m4088 701 c116 -257 329 -471 709 -711 205 -129 332 -223 406 -298 58
-59 139 -190 124 -200 -4 -3 -16 -27 -26 -53 -36 -97 -156 -212 -280 -268
-170 -77 -1051 -316 -1099 -297 -21 8 -119 160 -149 232 l-26 61 152 816 c90
486 154 808 157 795 4 -12 18 -47 32 -77z m1350 -2573 c85 -929 101 -1123 90
-1147 -84 -202 -821 -532 -1502 -674 -283 -59 -722 -117 -1161 -152 -267 -21
-981 -30 -1263 -15 -701 37 -1172 112 -2107 336 -387 93 -779 212 -958 291
-126 56 -283 188 -299 252 -4 17 60 430 172 1102 98 591 180 1078 182 1082 2
4 27 -11 56 -33 82 -63 213 -121 472 -209 783 -265 1411 -403 2160 -475 201
-20 601 -22 790 -6 303 26 813 90 1058 131 699 119 1770 391 1981 503 33 18
96 66 140 108 78 74 81 76 84 50 2 -14 49 -529 105 -1144z m6093 -1169 c14
-29 146 -281 292 -560 222 -425 269 -508 286 -508 12 0 293 47 626 104 333 57
607 102 609 100 2 -2 -194 -204 -435 -450 -242 -245 -440 -452 -442 -459 -2
-8 26 -67 61 -132 146 -267 519 -984 515 -989 -3 -2 -164 75 -359 172 -195 97
-449 223 -566 279 l-212 103 -442 -454 c-243 -250 -443 -453 -444 -452 -1 2
38 275 86 608 49 333 89 615 89 628 0 21 -59 53 -566 303 -312 154 -565 282
-563 284 3 2 283 51 623 109 340 58 621 107 623 110 4 3 153 1015 178 1204 4
28 9 52 11 52 2 0 15 -24 30 -52z m-19407 -220 c19 -117 64 -397 101 -623 65
-399 67 -410 91 -417 13 -4 298 -49 632 -100 606 -91 608 -92 575 -109 -18 -9
-274 -141 -568 -293 -425 -219 -534 -279 -533 -293 6 -41 193 -1190 199 -1218
5 -24 -84 59 -448 422 l-453 453 -85 -44 c-47 -24 -300 -154 -562 -290 -263
-135 -480 -246 -483 -246 -4 0 122 255 280 568 l286 567 -450 448 c-247 246
-444 447 -436 447 7 0 288 -43 626 -95 479 -74 615 -92 621 -83 5 7 133 262
286 565 152 304 279 553 282 553 3 0 21 -96 39 -212z m5116 -3613 c207 -264
382 -484 388 -488 7 -5 256 82 601 208 324 118 590 214 592 212 2 -1 -153
-234 -343 -517 -190 -283 -348 -522 -350 -530 -2 -8 20 -44 49 -80 94 -115
727 -924 725 -926 -1 -1 -270 74 -597 166 -327 93 -603 170 -612 172 -13 2
-110 -135 -371 -524 l-354 -527 -6 132 c-3 73 -14 356 -24 630 -9 274 -20 501
-23 506 -3 5 -270 84 -595 175 -324 92 -598 170 -609 174 -13 6 152 70 574
225 327 119 596 220 599 222 3 3 -5 277 -17 608 -26 683 -25 664 -13 652 5 -6
179 -226 386 -490z m9470 -261 c-8 -313 -15 -599 -15 -635 l0 -66 595 -209
c327 -115 595 -211 595 -214 0 -3 -272 -86 -604 -184 l-604 -179 -6 -126 c-3
-69 -11 -355 -17 -636 -6 -280 -12 -511 -13 -512 -2 -2 -541 777 -655 947 -35
52 -65 96 -66 98 -2 3 -785 -229 -1079 -319 -71 -22 -133 -38 -137 -37 -4 2
166 228 377 503 211 275 382 506 379 513 -4 12 -595 873 -679 990 -21 28 -35
52 -33 52 3 0 275 -95 603 -211 505 -179 599 -209 608 -197 100 135 761 996
763 994 2 -1 -4 -259 -12 -572z"/>
<path d="M24187 33989 c-95 -14 -194 -68 -266 -144 -33 -36 -72 -88 -86 -115
-62 -122 -70 -282 -20 -403 59 -142 48 -267 -27 -310 -18 -10 -464 -108 -1082
-238 -578 -121 -1052 -221 -1052 -222 -1 -1 -12 -22 -24 -47 -50 -98 -133
-189 -203 -221 -25 -11 -30 -9 -72 30 -39 36 -50 41 -91 41 -58 0 -109 -24
-131 -61 -21 -35 -28 -36 -78 -1 -56 39 -108 112 -144 201 -17 42 -34 75 -38
75 -4 -1 -61 -12 -126 -24 l-118 -23 7 -51 c14 -107 84 -276 146 -356 57 -73
136 -143 199 -174 l69 -34 -93 -73 c-399 -314 -686 -563 -688 -597 -2 -40 -6
-58 -18 -77 -13 -20 -13 -20 5 33 5 14 3 14 -10 -2 -9 -11 -16 -32 -16 -47 0
-15 -3 -34 -6 -42 -9 -25 141 -191 289 -320 151 -132 337 -241 497 -292 115
-36 294 -45 425 -20 165 31 325 105 481 222 96 72 237 213 312 313 68 89 69
94 31 176 -10 22 -19 47 -19 55 0 8 -13 26 -28 40 -77 74 -312 273 -498 423
-115 93 -215 174 -222 181 -11 10 5 21 84 60 80 38 111 61 173 124 48 47 86
98 104 134 33 68 -18 64 427 37 971 -58 1471 -91 1521 -99 115 -19 198 -81
365 -271 48 -55 91 -100 95 -100 4 0 57 58 117 128 121 140 179 193 244 222
50 21 193 33 958 80 789 47 1061 62 1075 57 6 -3 26 -29 42 -59 63 -110 175
-208 303 -266 l62 -28 -83 -65 c-343 -267 -654 -533 -679 -580 -6 -10 -12 -31
-14 -47 -1 -15 -8 -37 -15 -48 -13 -19 -12 -13 5 34 6 13 4 15 -6 5 -15 -14
-31 -103 -21 -121 4 -6 42 -52 86 -101 191 -218 457 -408 671 -480 231 -77
527 -45 763 85 163 90 362 265 484 427 l57 76 -10 47 c-6 25 -17 56 -25 68 -8
11 -15 27 -15 36 0 25 -171 176 -520 459 -124 101 -231 188 -238 195 -10 10 3
20 62 50 90 46 183 138 244 241 43 74 96 219 107 296 l7 45 -114 23 c-62 13
-119 24 -126 24 -8 1 -26 -28 -43 -72 -48 -119 -119 -205 -190 -230 -23 -8
-29 -5 -49 21 -61 83 -187 91 -246 15 -17 -20 -24 -23 -40 -14 -69 37 -147
125 -194 217 -12 25 -23 46 -24 47 -1 1 -473 101 -1049 222 -783 165 -1057
226 -1087 243 -79 46 -102 175 -51 291 79 180 37 393 -106 536 -119 119 -255
164 -416 140z m233 -184 c109 -55 172 -160 173 -290 2 -124 -43 -215 -136
-278 -165 -113 -400 -50 -489 131 -16 34 -24 69 -26 127 -6 141 52 245 170
304 56 28 70 31 160 31 85 0 105 -3 148 -25z m-3191 -1931 c2 -2 -2 -133 -8
-291 -6 -158 -11 -307 -11 -329 0 -37 -3 -43 -26 -48 -14 -4 -45 -27 -69 -51
l-43 -45 -339 0 -338 0 -23 53 -23 52 84 80 c47 45 185 164 307 266 123 101
262 216 309 255 84 70 87 72 131 67 25 -3 47 -7 49 -9z m313 -126 c237 -191
391 -323 508 -435 l103 -99 -17 -52 -18 -52 -343 0 -344 0 -21 30 c-12 16 -41
41 -64 55 l-43 25 -7 168 c-3 92 -9 238 -12 324 l-6 156 28 5 c16 2 39 5 51 6
15 1 76 -42 185 -131z m5687 125 l24 -6 -7 -146 c-3 -80 -9 -228 -12 -328 l-7
-182 -24 -6 c-14 -3 -44 -26 -68 -50 l-43 -45 -339 0 -339 0 -22 52 -22 53 84
81 c46 44 182 162 302 261 121 100 257 213 304 252 87 71 110 80 169 64z m358
-145 c222 -179 445 -372 527 -456 l59 -60 -19 -51 -18 -51 -342 0 -343 0 -21
30 c-12 16 -41 41 -64 55 l-44 25 -6 153 c-3 83 -9 232 -12 330 l-6 177 51 0
c51 0 51 0 238 -152z m-7267 -603 c0 -8 -4 -15 -10 -15 -5 0 -7 7 -4 15 4 8 8
15 10 15 2 0 4 -7 4 -15z m1884 0 c3 -9 0 -15 -9 -15 -9 0 -12 6 -9 15 4 8 7
15 9 15 2 0 5 -7 9 -15z m4136 0 c0 -8 -4 -15 -10 -15 -5 0 -7 7 -4 15 4 8 8
15 10 15 2 0 4 -7 4 -15z m1884 0 c3 -9 0 -15 -9 -15 -9 0 -12 6 -9 15 4 8 7
15 9 15 2 0 5 -7 9 -15z m-7019 -5 c-3 -5 -14 -10 -23 -10 -15 0 -15 2 -2 10
20 13 33 13 25 0z m120 0 c3 -5 -1 -10 -9 -10 -9 0 -16 5 -16 10 0 6 4 10 9
10 6 0 13 -4 16 -10z m5895 0 c0 -5 -8 -10 -17 -10 -15 0 -16 2 -3 10 19 12
20 12 20 0z m125 0 c3 -5 -1 -10 -9 -10 -9 0 -16 5 -16 10 0 6 4 10 9 10 6 0
13 -4 16 -10z m-6623 -112 c4 -121 2 -158 -8 -168 -7 -7 -42 4 -105 31 -98 42
-150 83 -209 165 l-31 44 175 0 176 0 2 -72z m6020 0 c4 -121 2 -158 -8 -168
-7 -7 -42 3 -105 30 -81 35 -103 49 -157 107 -104 110 -111 103 93 103 l175 0
2 -72z"/>
<path d="M20278 20751 c-174 -47 -319 -89 -322 -92 -3 -3 6 -67 20 -142 32
-165 50 -182 55 -53 3 66 9 91 25 113 23 32 91 69 144 78 l36 6 98 -453 c54
-249 100 -462 103 -473 7 -34 -15 -74 -52 -96 -31 -18 -48 -49 -27 -49 4 0 79
20 167 44 125 33 161 47 163 61 3 14 -1 17 -24 12 -48 -9 -81 10 -99 56 -15
40 -205 894 -205 922 0 15 81 39 135 40 59 0 90 -25 127 -105 18 -39 38 -70
45 -70 7 0 13 3 13 8 -2 29 -69 277 -76 278 -5 1 -152 -37 -326 -85z"/>
<path d="M19597 20541 c-87 -27 -160 -51 -163 -54 -14 -13 10 -28 35 -22 40 8
78 -9 96 -45 19 -37 263 -837 271 -892 6 -32 2 -41 -23 -65 -16 -15 -36 -32
-46 -38 -9 -5 -14 -15 -9 -21 5 -7 61 6 175 40 174 53 210 76 119 76 -54 0
-72 13 -96 70 -26 63 -257 840 -258 868 -1 45 11 68 47 88 34 18 48 45 23 43
-7 0 -84 -22 -171 -48z"/>
<path d="M18732 20197 c-99 -43 -141 -66 -139 -77 2 -11 13 -14 45 -11 51 3
66 -7 98 -71 47 -93 343 -798 350 -833 6 -32 3 -39 -29 -69 -21 -19 -32 -38
-28 -45 10 -16 601 235 601 256 0 11 -31 157 -55 261 -3 13 -11 22 -18 19 -7
-2 -12 -31 -12 -83 -1 -93 -26 -159 -73 -193 -46 -32 -174 -91 -214 -98 -30
-4 -38 -2 -51 18 -32 50 -358 825 -364 865 -6 43 8 67 52 92 19 10 13 33 -8
31 -7 -1 -76 -29 -155 -62z"/>
<path d="M18108 19922 c-158 -75 -286 -141 -285 -147 2 -5 24 -10 49 -10 32 0
53 -6 68 -20 25 -23 79 -127 275 -539 155 -326 168 -367 120 -404 -16 -13 -25
-28 -22 -36 5 -11 72 17 294 124 158 76 289 145 291 153 2 8 -8 54 -22 103
-13 49 -30 108 -36 132 -19 72 -35 47 -35 -54 -1 -97 -14 -135 -63 -182 -39
-35 -202 -113 -232 -110 -22 3 -37 28 -122 200 -53 108 -99 205 -102 215 -4
15 13 26 92 62 53 24 113 46 132 48 38 5 56 -7 106 -72 15 -20 31 -32 36 -27
11 11 -157 362 -173 362 -7 0 -9 -9 -5 -27 19 -78 19 -123 0 -144 -18 -20
-203 -119 -222 -119 -5 0 -46 78 -91 173 -107 225 -107 221 33 287 56 26 115
50 131 53 43 8 90 -18 127 -69 31 -44 39 -50 51 -38 5 5 -98 224 -106 224 -1
0 -131 -62 -289 -138z"/>
<path d="M17428 19575 c-76 -19 -398 -181 -398 -200 0 -11 10 -13 49 -8 46 5
49 4 73 -28 14 -19 105 -217 202 -440 194 -448 199 -463 147 -513 -16 -16 -27
-34 -24 -42 4 -10 56 12 196 83 156 78 202 106 245 149 170 171 170 470 -1
759 -118 198 -300 288 -489 240z m164 -104 c125 -60 238 -212 303 -406 80
-237 32 -424 -133 -523 -32 -19 -35 -19 -80 -2 l-47 18 -177 406 -177 406 13
43 c11 38 17 44 66 65 71 29 164 27 232 -7z"/>
<path d="M16665 19245 c-162 -68 -189 -93 -98 -87 45 3 56 0 74 -20 11 -13
115 -209 230 -435 235 -463 239 -476 175 -514 -39 -23 -40 -55 -2 -43 32 10
297 122 303 128 14 14 -12 23 -56 18 -45 -4 -52 -2 -76 24 -31 33 -429 822
-440 872 -6 29 -3 37 29 67 37 34 46 56 24 54 -7 0 -80 -29 -163 -64z"/>
<path d="M16002 19070 c-156 -37 -286 -70 -289 -73 -12 -13 11 -27 43 -27 48
0 86 -22 116 -67 69 -104 470 -830 475 -859 5 -30 2 -36 -26 -51 -17 -10 -31
-22 -31 -26 0 -20 41 -16 184 18 118 28 153 40 149 51 -3 9 -21 14 -47 14 -48
1 -76 15 -106 53 -30 38 -240 410 -235 415 9 9 183 41 224 42 38 0 49 -5 86
-42 23 -24 46 -51 52 -62 5 -10 17 -16 25 -15 12 3 -9 48 -84 179 -55 96 -103
179 -109 184 -18 20 -20 -4 -4 -54 19 -57 14 -94 -14 -109 -10 -6 -64 -21
-119 -34 l-100 -24 -102 180 c-84 149 -100 184 -95 208 7 31 12 33 161 65 117
24 144 17 220 -62 35 -35 65 -60 69 -55 3 6 -22 58 -56 116 -49 84 -66 105
-83 104 -11 -1 -148 -32 -304 -69z"/>
<path d="M28457 20703 c-27 -102 -33 -139 -24 -145 15 -9 19 -4 42 52 47 113
94 140 206 117 59 -12 64 -15 61 -38 -3 -27 -163 -735 -192 -848 -23 -90 -49
-121 -101 -121 -35 0 -58 -14 -45 -27 3 -3 72 -21 153 -39 81 -19 158 -36 171
-39 17 -4 22 -1 22 15 0 12 -7 20 -16 20 -27 0 -74 56 -74 87 1 32 205 931
214 940 9 10 134 -28 160 -48 30 -24 51 -104 43 -171 -5 -42 -4 -49 10 -46 13
2 23 34 44 138 15 74 24 138 21 141 -7 6 -629 149 -648 149 -6 0 -27 -62 -47
-137z"/>
<path d="M29295 20620 c-4 -7 7 -23 26 -39 28 -24 33 -34 32 -68 -2 -40 -292
-798 -335 -875 -23 -41 -44 -52 -97 -53 -19 0 -36 -4 -38 -10 -3 -9 578 -245
603 -245 5 0 21 19 35 43 14 23 48 77 74 120 34 55 45 81 38 88 -8 8 -28 -6
-70 -48 -98 -98 -169 -105 -340 -31 -42 18 -80 40 -86 48 -7 12 13 73 73 225
45 116 85 215 88 222 10 17 211 -69 241 -104 24 -27 25 -59 5 -138 -4 -18 -2
-25 8 -25 16 0 162 356 152 371 -10 16 -21 9 -34 -20 -19 -46 -69 -91 -101
-91 -22 0 -224 72 -237 84 -1 2 29 84 68 182 91 234 87 230 234 173 69 -26
117 -51 137 -72 31 -31 32 -32 26 -109 -9 -112 9 -101 60 34 23 62 41 113 40
114 -1 1 -130 52 -287 114 -157 62 -290 114 -296 117 -7 2 -15 -1 -19 -7z"/>
<path d="M30188 20217 c-156 -44 -303 -206 -391 -432 -128 -326 -65 -606 160
-717 57 -28 79 -33 157 -36 59 -2 105 1 131 10 l40 13 75 191 c90 230 98 242
147 246 20 2 38 8 40 13 2 8 -249 125 -270 125 -18 0 -4 -29 24 -49 29 -21 31
-27 26 -66 -7 -69 -125 -366 -155 -394 -37 -33 -121 -27 -189 15 -133 82 -165
278 -86 528 110 350 324 547 498 458 50 -25 69 -45 97 -107 19 -43 23 -67 23
-162 0 -78 4 -113 11 -113 7 0 15 8 19 18 17 42 115 321 115 326 0 10 -31 7
-67 -6 -32 -12 -34 -11 -85 42 -90 91 -211 127 -320 97z"/>
<path d="M30780 20009 c0 -6 14 -27 31 -47 26 -29 30 -41 26 -71 -5 -39 -287
-811 -318 -873 -24 -47 -49 -61 -95 -52 -31 6 -35 4 -32 -11 3 -18 286 -158
300 -149 16 10 8 31 -16 44 -31 16 -50 61 -42 97 4 16 36 110 73 211 65 181
67 183 92 177 14 -4 29 -10 33 -13 6 -6 78 -572 78 -614 0 -8 36 -31 89 -55
109 -50 118 -42 67 56 -32 61 -38 84 -66 291 -17 124 -33 237 -36 253 l-6 27
64 0 c114 0 190 59 238 187 34 88 33 182 -3 255 -42 85 -90 121 -284 214 -96
46 -179 84 -184 84 -5 0 -9 -5 -9 -11z m307 -205 c50 -38 76 -97 76 -169 -2
-144 -98 -275 -201 -275 -32 0 -162 37 -162 46 0 4 32 94 72 201 66 179 75
197 103 209 45 20 74 17 112 -12z"/>
<path d="M31594 19618 c-4 -6 11 -25 32 -43 33 -28 39 -38 38 -71 -2 -50 -330
-866 -362 -901 -23 -25 -40 -27 -101 -11 -7 1 -16 -3 -18 -9 -5 -13 285 -163
313 -163 8 0 14 7 14 15 0 8 -4 15 -9 15 -4 0 -21 12 -36 27 -24 24 -27 34
-23 75 6 61 323 850 356 885 21 23 28 25 73 19 78 -10 62 15 -38 64 -189 92
-232 109 -239 98z"/>
<path d="M32003 19392 c-8 -20 -33 -79 -55 -131 -29 -70 -37 -96 -28 -105 8
-8 13 -7 20 4 36 64 81 116 113 133 37 19 38 19 105 -2 37 -12 74 -26 81 -31
11 -6 -20 -95 -149 -426 -89 -231 -171 -436 -181 -456 -24 -47 -50 -61 -98
-53 -28 5 -40 3 -44 -8 -7 -18 312 -152 327 -137 6 6 -3 21 -29 43 -32 28 -39
40 -38 68 1 41 333 909 348 909 6 0 38 -13 72 -30 86 -40 106 -73 98 -160 -3
-36 -7 -76 -8 -89 -1 -13 3 -26 9 -28 10 -3 111 263 103 271 -4 4 -549 234
-607 257 -20 8 -25 5 -39 -29z"/>
<path d="M32723 19124 c-3 -9 2 -21 15 -29 30 -22 34 -67 33 -372 l-1 -282
-90 -184 c-50 -101 -102 -195 -116 -208 -20 -19 -36 -24 -76 -24 -76 0 -72
-20 9 -44 181 -53 249 -71 265 -71 30 0 20 25 -17 43 -57 27 -51 60 58 284
l93 192 179 167 c280 260 325 294 383 294 27 0 51 23 34 34 -7 4 -228 66 -236
66 -2 0 -7 -7 -10 -16 -4 -10 4 -30 19 -50 24 -31 25 -35 11 -56 -14 -21 -307
-304 -349 -338 -18 -14 -19 -7 -15 212 2 160 7 231 15 239 7 7 34 19 60 28 81
27 65 41 -102 88 -82 23 -151 42 -153 43 -1 0 -5 -7 -9 -16z"/>
<path d="M21263 18463 c-4 -9 1 -19 12 -26 10 -5 35 -25 54 -43 34 -31 36 -36
35 -96 -1 -93 -180 -1017 -203 -1048 -20 -28 -59 -36 -102 -21 -25 9 -29 8
-29 -8 0 -14 56 -45 238 -131 258 -123 302 -140 370 -140 132 0 231 131 232
306 0 132 -36 221 -128 317 l-46 47 55 0 c76 0 115 27 154 105 28 56 30 68 30
170 0 101 -2 115 -29 170 -18 38 -54 84 -94 123 -56 54 -89 75 -236 146 -280
137 -306 148 -313 129z m340 -218 c155 -73 223 -213 187 -384 -23 -107 -70
-157 -146 -154 -48 2 -214 71 -214 89 0 7 18 105 39 218 25 131 46 215 58 230
10 14 19 26 21 26 2 0 27 -11 55 -25z m3 -652 c110 -107 132 -274 57 -422 -50
-96 -126 -113 -251 -56 -71 33 -102 61 -102 94 0 14 20 132 45 261 25 129 45
238 45 243 0 17 163 -78 206 -120z"/>
<path d="M27500 18342 c-91 -39 -136 -63 -138 -75 -4 -18 0 -20 65 -37 41 -10
42 -11 36 -48 -6 -44 -120 -509 -131 -535 -6 -15 -33 15 -139 150 -72 93 -142
190 -154 216 -27 55 -23 69 34 106 20 13 37 33 37 43 0 10 -1 18 -2 18 -2 0
-88 -35 -193 -79 -127 -52 -191 -83 -193 -94 -3 -13 4 -17 29 -17 64 0 98 -34
399 -409 l84 -104 28 -181 c16 -100 30 -212 31 -249 2 -68 2 -68 -39 -105 -22
-20 -48 -42 -58 -47 -10 -6 -17 -18 -15 -27 6 -25 419 147 419 175 0 14 -4 17
-17 12 -39 -15 -93 -17 -109 -4 -26 21 -32 49 -69 281 l-35 219 71 267 c112
428 129 475 189 525 30 26 40 58 18 56 -7 0 -74 -26 -148 -57z"/>
<path d="M22150 18090 c0 -11 15 -27 39 -41 42 -23 61 -54 61 -99 0 -48 -140
-999 -153 -1038 -14 -44 -49 -65 -94 -57 -28 5 -33 3 -33 -13 0 -17 27 -27
183 -71 101 -28 189 -51 195 -51 27 0 9 31 -28 50 -26 13 -47 34 -58 56 -16
34 -15 45 18 275 36 258 34 252 92 230 21 -8 41 -57 146 -353 l123 -343 102
-28 c56 -15 108 -27 115 -27 23 0 12 25 -23 53 -19 15 -42 42 -51 58 -16 32
-234 599 -234 610 0 3 26 9 58 12 158 14 237 121 237 322 0 119 -21 171 -96
247 -67 67 -138 99 -369 162 -113 32 -211 59 -217 61 -8 3 -13 -4 -13 -15z
m345 -161 c86 -26 154 -90 174 -161 20 -72 10 -191 -21 -259 -44 -97 -122
-129 -258 -107 -66 11 -75 16 -73 33 18 159 68 475 79 493 18 27 16 27 99 1z"/>
<path d="M26300 17956 c-346 -78 -390 -90 -390 -108 0 -14 8 -18 33 -18 44 0
75 -24 86 -68 11 -42 91 -911 93 -1008 1 -74 -16 -107 -67 -131 -37 -18 -52
-59 -17 -49 9 3 76 19 148 35 221 50 224 52 224 72 0 14 -6 17 -32 13 -45 -6
-81 15 -94 56 -6 19 -19 121 -28 225 -9 105 -19 204 -22 222 -4 30 -3 33 37
43 22 6 42 10 44 8 1 -2 89 -119 195 -261 139 -185 197 -256 209 -253 9 3 60
14 114 27 81 18 97 25 97 41 0 14 -18 27 -65 48 -62 28 -69 35 -221 227 -86
109 -163 205 -171 214 -12 15 -8 20 37 49 119 76 175 177 175 315 0 242 -145
355 -385 301z m113 -90 c78 -32 123 -135 115 -265 -5 -88 -27 -137 -85 -193
-43 -42 -140 -90 -186 -92 l-31 -1 -23 249 c-20 220 -21 252 -8 272 25 39 154
57 218 30z"/>
<path d="M25540 17835 c-69 -7 -232 -23 -362 -36 -216 -20 -238 -24 -238 -41
0 -13 7 -18 25 -18 42 0 82 -27 94 -62 14 -37 64 -960 58 -1052 -3 -51 -8 -63
-35 -87 -18 -16 -41 -29 -52 -29 -23 0 -36 -18 -22 -32 10 -10 752 57 763 70
4 4 14 66 23 137 9 72 19 145 22 163 5 27 3 32 -13 32 -15 0 -23 -11 -32 -42
-48 -163 -119 -224 -284 -247 -109 -15 -192 -14 -206 3 -10 11 -44 534 -36
544 7 8 258 24 289 18 43 -8 65 -37 81 -109 8 -37 17 -53 30 -56 17 -3 17 4
12 90 -4 52 -10 156 -13 232 -6 119 -9 137 -23 135 -11 -2 -18 -19 -22 -58 -7
-69 -29 -112 -66 -129 -26 -12 -283 -45 -290 -37 -7 7 -24 371 -21 436 l3 65
45 7 c109 16 289 21 319 8 32 -13 81 -94 81 -134 0 -33 17 -53 31 -39 18 18
-1 277 -21 279 -8 1 -71 -4 -140 -11z"/>
<path d="M23519 17813 c-6 -16 -94 -251 -196 -523 -218 -583 -239 -632 -285
-659 -89 -53 -79 -63 85 -81 127 -15 136 -15 140 1 3 12 -3 19 -22 24 -75 19
-80 79 -20 252 23 65 45 122 49 127 8 8 357 -28 367 -38 9 -8 43 -152 58 -239
20 -120 8 -147 -66 -147 -35 0 -40 -27 -6 -34 55 -12 327 -37 337 -31 15 10
12 25 -7 32 -40 14 -64 50 -88 128 -13 44 -88 335 -166 648 -145 579 -154 607
-180 540z m40 -529 c34 -146 61 -267 59 -270 -10 -9 -319 30 -315 40 47 134
183 496 187 496 3 0 34 -120 69 -266z"/>
<path d="M24530 17740 c0 -11 7 -20 15 -20 30 0 75 -31 81 -56 4 -14 1 -53 -5
-87 -13 -69 -211 -788 -220 -799 -9 -10 -282 832 -281 868 0 39 27 64 68 64
25 0 32 4 32 20 0 19 -7 20 -185 20 -178 0 -185 -1 -185 -20 0 -13 7 -20 18
-20 22 0 63 -42 86 -88 9 -17 102 -292 207 -610 105 -317 195 -581 200 -586 5
-5 11 -7 14 -4 3 3 80 275 171 604 91 329 175 617 187 639 16 28 32 43 55 50
21 6 32 15 32 27 0 16 -12 18 -145 18 -138 0 -145 -1 -145 -20z"/>
<path d="M12985 40174 c-35 -13 -257 -173 -271 -196 -4 -6 211 -300 257 -352
9 -10 204 138 243 185 40 48 57 86 63 144 7 66 -21 129 -78 178 -64 55 -137
69 -214 41z"/>
<path d="M11059 38173 c10 -27 60 -158 111 -293 51 -135 96 -248 99 -252 4 -4
92 78 196 182 104 104 187 191 185 194 -7 6 -590 216 -601 216 -5 0 0 -21 10
-47z"/>
<path d="M9632 36934 c-28 -14 -71 -47 -94 -73 -56 -62 -132 -161 -127 -165 2
-1 105 -83 227 -180 187 -148 226 -175 235 -163 138 174 177 247 177 332 0 66
-28 124 -86 180 -101 96 -225 122 -332 69z"/>
<path d="M7329 32996 c-154 -43 -259 -144 -356 -344 -36 -73 -62 -139 -60
-146 5 -12 1141 -526 1162 -526 12 1 78 144 113 245 15 41 27 103 30 151 9
152 -33 258 -148 375 -113 115 -290 209 -460 245 -80 17 -219 17 -281 0z"/>
<path d="M42665 25140 c-216 -39 -390 -167 -456 -337 -34 -88 -39 -255 -9
-343 44 -129 125 -229 240 -292 221 -123 569 -123 777 -1 239 140 322 438 190
687 -65 123 -194 219 -357 266 -85 24 -299 35 -385 20z"/>
<path d="M5870 22983 c-333 -41 -607 -76 -609 -78 -7 -8 22 -223 40 -294 47
-183 169 -311 349 -365 76 -23 228 -31 331 -17 312 42 505 181 564 406 18 70
20 213 4 337 l-12 88 -31 -1 c-17 -1 -303 -35 -636 -76z"/>
<path d="M7342 18596 c-106 -40 -194 -75 -197 -78 -6 -6 81 -235 105 -272 72
-116 188 -155 298 -100 79 39 122 109 122 195 0 55 -100 329 -120 328 -8 0
-102 -33 -208 -73z"/>
<path d="M41584 18705 c-160 -13 -298 -24 -307 -26 -12 -3 53 -74 215 -236
128 -128 235 -230 238 -225 8 8 180 493 180 505 0 4 -8 6 -17 6 -10 -1 -149
-12 -309 -24z"/>
<path d="M8070 16302 c-173 -13 -316 -26 -318 -27 -2 -2 56 -109 129 -240 72
-130 135 -233 139 -228 17 19 380 514 380 518 0 3 -3 4 -7 4 -5 -1 -150 -13
-323 -27z"/>
<path d="M11450 12254 l-155 -155 88 -85 c102 -97 149 -125 216 -126 58 0 106
19 155 62 75 66 95 154 55 236 -18 39 -182 224 -198 224 -3 0 -76 -70 -161
-156z"/>
<path d="M10878 11676 l-178 -183 93 -90 c50 -49 110 -102 132 -116 95 -62
194 -52 283 28 99 89 126 197 77 302 -24 54 -197 244 -219 242 -6 0 -91 -83
-188 -183z"/>
<path d="M14900 9538 c-62 -101 -114 -185 -116 -188 -2 -6 165 -109 236 -146
25 -13 57 -19 116 -19 71 0 85 3 122 27 51 34 91 101 99 165 6 58 -22 135 -65
176 -30 28 -255 167 -271 167 -5 0 -60 -82 -121 -182z"/>
<path d="M18958 7409 c-108 -134 -195 -245 -194 -246 1 -2 110 -36 242 -76
175 -54 240 -71 242 -61 4 16 -77 582 -87 608 -6 15 -44 -28 -203 -225z"/>
<path d="M24430 7097 c-140 -48 -237 -133 -301 -262 -60 -123 -73 -187 -73
-355 0 -226 45 -363 163 -491 98 -108 218 -159 372 -159 252 0 446 163 515
435 25 99 25 304 0 405 -59 235 -197 387 -401 440 -71 18 -203 12 -275 -13z"/>
<path d="M16925 47538 l-60 -63 63 60 c58 55 67 65 59 65 -1 0 -29 -28 -62
-62z"/>
<path d="M43310 39075 c0 -2 23 -16 50 -30 28 -14 50 -23 50 -20 0 2 -22 16
-50 30 -27 14 -50 23 -50 20z"/>
<path d="M5032 38920 c0 -14 2 -19 5 -12 2 6 2 18 0 25 -3 6 -5 1 -5 -13z"/>
<path d="M5022 38870 c0 -14 2 -19 5 -12 2 6 2 18 0 25 -3 6 -5 1 -5 -13z"/>
<path d="M5001 38769 c-7 -38 -11 -72 -9 -75 3 -2 10 28 17 67 7 38 11 72 9
75 -3 2 -10 -28 -17 -67z"/>
<path d="M47821 25365 c0 -5 18 -44 39 -85 21 -41 39 -70 39 -65 0 6 -18 44
-39 85 -21 41 -39 71 -39 65z"/>
<path d="M47921 25155 c0 -5 11 -30 24 -55 13 -25 24 -40 24 -35 0 6 -11 30
-24 55 -13 25 -24 41 -24 35z"/>
<path d="M521 24925 c0 -5 15 -39 34 -75 19 -36 34 -60 34 -55 0 6 -15 39 -34
75 -19 36 -34 61 -34 55z"/>
</g>
</svg>
